<?xml version="1.0" encoding="UTF-8"?>
<svg version="1.1" xmlns="http://www.w3.org/2000/svg" width="1600" height="371">
<path d="M0 0 C528 0 1056 0 1600 0 C1600 122.43 1600 244.86 1600 371 C1072 371 544 371 0 371 C0 248.57 0 126.14 0 0 Z " fill="#FDFDFD" transform="translate(0,0)"/>
<path d="M0 0 C17.49 0 34.98 0 53 0 C55.89934981 8.69804943 58.79495511 17.38607001 61.5625 26.125 C61.84029297 26.99769531 62.11808594 27.87039062 62.40429688 28.76953125 C64.28050546 34.67851003 66.111573 40.60063545 67.9309082 46.52734375 C69.66838863 52.17108014 71.42830784 57.80778318 73.18969727 63.4440918 C73.80221827 65.40459122 74.41382654 67.36537377 75.02539062 69.32617188 C79.59162608 83.9517444 84.24269485 98.55038836 88.93727112 113.13523865 C90.25400765 117.22643676 91.56802055 121.31850754 92.88183594 125.41064453 C93.55329811 127.49930785 94.22618814 129.58751259 94.90039062 131.67529297 C95.89321131 134.75104385 96.88070175 137.8284624 97.8671875 140.90625 C98.16817352 141.83433472 98.46915955 142.76241943 98.77926636 143.71862793 C99.05690826 144.58814087 99.33455017 145.45765381 99.62060547 146.35351562 C99.86374481 147.1087854 100.10688416 147.86405518 100.35739136 148.64221191 C101.10398184 151.38151857 101.53323429 154.19940576 102 157 C86.82 157 71.64 157 56 157 C54.35 151.06 52.7 145.12 51 139 C26.745 138.505 26.745 138.505 2 138 C1.01 141.96 0.02 145.92 -1 150 C-1.66 152.31 -2.32 154.62 -3 157 C-18.18 157 -33.36 157 -49 157 C-47.1110876 150.07398786 -45.2007833 143.18083961 -43.125 136.3125 C-42.86380371 135.44584717 -42.60260742 134.57919434 -42.33349609 133.6862793 C-36.89274789 115.68015128 -31.11113001 97.78112177 -25.3515625 79.875 C-22.56911177 71.19954872 -19.8421523 62.5086787 -17.17578125 53.796875 C-16.92144318 52.96668854 -16.6671051 52.13650208 -16.40505981 51.28115845 C-15.13727791 47.14165956 -13.87278998 43.00120712 -12.61425781 38.85888672 C-8.62824311 25.8180065 -4.31680803 12.95042408 0 0 Z " fill="#5C5C5C" transform="translate(498,101)"/>
<path d="M0 0 C11.13607042 -0.09302735 22.27204709 -0.16393036 33.40842819 -0.20724869 C38.58053141 -0.22804823 43.7523671 -0.25622521 48.92431641 -0.30175781 C53.9234502 -0.34548932 58.92232804 -0.36919439 63.92163849 -0.37950897 C65.8208646 -0.38685162 67.72007805 -0.40118903 69.61919403 -0.42292023 C86.62939858 -0.6096738 100.19663367 1.97468119 113 14 C124.78923478 28.55531737 129.22946412 43.32385461 128 62 C125.8005903 77.17407868 118.53347457 88.77832959 106.5 97.97265625 C105.35068688 98.67754685 104.18059558 99.34885831 103 100 C101.79404175 100.66721069 101.79404175 100.66721069 100.5637207 101.34790039 C89.51637366 106.51003268 78.12400223 105.5504803 66.1875 105.3125 C58.865625 105.209375 51.54375 105.10625 44 105 C44 122.16 44 139.32 44 157 C34.43 157 24.86 157 15 157 C11.36166406 146.17373209 7.80468978 135.3287416 4.36108398 124.43896484 C4.08208252 123.5567627 3.80308105 122.67456055 3.515625 121.765625 C3.14872559 120.60208496 3.14872559 120.60208496 2.77441406 119.41503906 C2.22485769 117.70122707 1.61536357 116.00612417 0.96578979 114.32766724 C-0.11812918 110.59298121 -0.26720929 107.19075266 -0.22705078 103.34228516 C-0.22734283 102.60013763 -0.22763489 101.85799011 -0.22793579 101.09335327 C-0.22655072 98.65846765 -0.21102871 96.22389418 -0.1953125 93.7890625 C-0.19157944 92.09370084 -0.18873385 90.39833701 -0.18673706 88.70297241 C-0.1791237 84.25435362 -0.15949505 79.80586672 -0.1373291 75.3572998 C-0.11682107 70.81243676 -0.10772476 66.26755229 -0.09765625 61.72265625 C-0.0762469 52.81504642 -0.04213882 43.9075342 0 35 C-3.3 35 -6.6 35 -10 35 C-8.1826407 24.42627318 -4.8060741 14.40166961 -1.41772461 4.24829102 C-1.15116562 3.449319 -0.88460663 2.65034698 -0.60997009 1.8271637 C-0.40867996 1.22419968 -0.20738983 0.62123566 0 0 Z " fill="#5C5C5C" transform="translate(595,101)"/>
<path d="M0 0 C9.36476164 7.95930768 14.44064128 17.29395947 17.47265625 29.1015625 C8.29551913 32.29297076 -0.95555264 35.17494807 -10.27734375 37.9140625 C-11.33695313 38.22802979 -12.3965625 38.54199707 -13.48828125 38.86547852 C-14.48601562 39.15608154 -15.48375 39.44668457 -16.51171875 39.74609375 C-17.40600586 40.00753174 -18.30029297 40.26896973 -19.22167969 40.53833008 C-21.52734375 41.1015625 -21.52734375 41.1015625 -24.52734375 41.1015625 C-24.6975 40.43769531 -24.86765625 39.77382812 -25.04296875 39.08984375 C-26.86202673 32.46189313 -28.39039314 28.03712777 -34.46484375 24.2890625 C-40.37303593 22.06870518 -47.83899481 21.87421089 -53.81640625 23.86328125 C-57.12037416 25.64180014 -59.84417295 27.73522089 -61.52734375 31.1015625 C-61.95006465 34.41287619 -61.71124534 36.58663806 -60.58984375 39.7265625 C-57.51250105 43.27016924 -53.86647354 44.49782013 -49.52734375 46.1015625 C-48.83511719 46.36839844 -48.14289062 46.63523438 -47.4296875 46.91015625 C-43.08549223 48.47731454 -38.73988017 49.50269685 -34.21484375 50.4140625 C-28.131401 51.67703811 -22.17904475 53.2357831 -16.21484375 54.9765625 C-15.39137451 55.20899658 -14.56790527 55.44143066 -13.71948242 55.6809082 C-0.87616976 59.51390488 10.2618876 67.2106188 17.2890625 78.81640625 C22.43841297 88.75822151 23.09275978 100.46785436 20.78125 111.359375 C16.4598429 124.3416775 6.73894445 133.26664368 -5.21484375 139.3515625 C-12.43122624 142.89503282 -19.70221818 145.22987706 -27.52734375 147.1015625 C-28.41474243 147.36308105 -28.41474243 147.36308105 -29.32006836 147.62988281 C-48.62946106 151.75616826 -70.76355478 148.2871558 -87.52734375 138.1015625 C-98.72622928 130.53783195 -106.42518217 121.05887095 -110.52734375 108.1015625 C-110.52734375 107.1115625 -110.52734375 106.1215625 -110.52734375 105.1015625 C-91.484375 99.2421875 -91.484375 99.2421875 -88.02587891 98.18164062 C-85.6374261 97.44427041 -83.25177864 96.6977669 -80.86865234 95.94335938 C-79.7080127 95.57791016 -78.54737305 95.21246094 -77.3515625 94.8359375 C-76.30444092 94.50303711 -75.25731934 94.17013672 -74.1784668 93.82714844 C-71.52734375 93.1015625 -71.52734375 93.1015625 -68.52734375 93.1015625 C-68.32431641 94.07996094 -68.32431641 94.07996094 -68.1171875 95.078125 C-66.46573235 101.78283514 -64.37925485 105.39208747 -58.52734375 109.1015625 C-51.43164056 113.35898441 -43.32884553 113.21097782 -35.3828125 111.375 C-31.20273557 109.99842848 -28.15303774 108.65450137 -24.83984375 105.7265625 C-23.19271035 102.4322957 -22.85903301 100.74014318 -23.52734375 97.1015625 C-27.6479002 90.23396842 -33.95945255 88.35639358 -41.44238281 86.30078125 C-44.5264255 85.55459336 -47.61736486 84.85225899 -50.71484375 84.1640625 C-62.40136985 81.46280571 -73.82567409 78.66899784 -84.52734375 73.1015625 C-84.34558594 72.56789063 -84.16382813 72.03421875 -83.9765625 71.484375 C-83.72519531 70.73929687 -83.47382812 69.99421875 -83.21484375 69.2265625 C-82.97121094 68.50726563 -82.72757813 67.78796875 -82.4765625 67.046875 C-82.16332031 66.07492188 -81.85007812 65.10296875 -81.52734375 64.1015625 C-81.27742676 63.38347412 -81.02750977 62.66538574 -80.77001953 61.92553711 C-78.70610931 55.6690394 -77.98118729 49.98872878 -78.02734375 43.4140625 C-78.03592407 41.97776489 -78.03592407 41.97776489 -78.04467773 40.51245117 C-78.34885168 28.30145456 -81.99732869 18.38643163 -89.07421875 8.37109375 C-90.45480131 6.21486131 -91.09050846 4.60186973 -91.52734375 2.1015625 C-64.22328399 -16.94488648 -27.69085981 -21.27614264 0 0 Z " fill="#5C5C5C" transform="translate(809.52734375,111.8984375)"/>
<path d="M0 0 C528 0 1056 0 1600 0 C1600 122.43 1600 244.86 1600 371 C1072 371 544 371 0 371 C0 248.57 0 126.14 0 0 Z M2 2 C2 123.11 2 244.22 2 369 C528.68 369 1055.36 369 1598 369 C1598 247.89 1598 126.78 1598 2 C1071.32 2 544.64 2 2 2 Z " fill="#626261" transform="translate(0,0)"/>
<path d="M0 0 C3.51822798 2.48224831 6.78412516 5.13901797 10 8 C11.03060547 8.88945313 11.03060547 8.88945313 12.08203125 9.796875 C20.15644533 17.2501803 27.83877351 28.43310306 31 39 C31 40.32 31 41.64 31 43 C22.62495535 46.21395573 14.13617404 48.77498388 5.5 51.1875 C3.0102825 51.8888468 0.52069276 52.59064737 -1.96875 53.29296875 C-3.05607422 53.5974292 -4.14339844 53.90188965 -5.26367188 54.21557617 C-7.18862535 54.76740304 -9.10027295 55.36675765 -11 56 C-11.29132813 55.2265625 -11.58265625 54.453125 -11.8828125 53.65625 C-15.95508808 43.30908437 -21.21896174 33.85460664 -31.5390625 28.7421875 C-39.05290382 25.71548522 -46.20536314 24.62422542 -54.0625 27 C-61.84265419 30.3388516 -67.50775821 37.04427078 -72 44 C-74.31 43.67 -76.62 43.34 -79 43 C-79 45.31 -79 47.62 -79 50 C-77.68 50 -76.36 50 -75 50 C-75.14308594 50.90878906 -75.28617187 51.81757813 -75.43359375 52.75390625 C-76.20103113 58.12596794 -76.609497 63.53166423 -77.0625 68.9375 C-77.15337891 70.00291016 -77.24425781 71.06832031 -77.33789062 72.16601562 C-77.56036809 74.77719846 -77.78102215 77.38852175 -78 80 C-80.97 79.505 -80.97 79.505 -84 79 C-84.33 81.31 -84.66 83.62 -85 86 C-82.36 86 -79.72 86 -77 86 C-76.56300781 87.57587891 -76.56300781 87.57587891 -76.1171875 89.18359375 C-72.80126394 100.71718118 -69.08334253 108.9662847 -59.5390625 116.6875 C-59.03117187 117.120625 -58.52328125 117.55375 -58 118 C-58 118.33 -58 118.66 -58 119 C-67.02537877 118.62979352 -75.92738706 117.86569935 -84.875 116.625 C-85.72924561 116.51115967 -86.58349121 116.39731934 -87.46362305 116.2800293 C-102.14848614 114.15464455 -102.14848614 114.15464455 -107.95703125 109.765625 C-110.35796642 106.51541066 -111.49300541 103.6073048 -112.6875 99.75 C-113.01016846 98.75637451 -113.01016846 98.75637451 -113.33935547 97.74267578 C-114.48894267 94.11132746 -115.21184938 90.65056107 -115.625 86.875 C-115.89213313 84.77600929 -115.89213313 84.77600929 -117 83 C-120.48187583 80.75482702 -124.07884282 79.30486669 -128 78 C-128 76.35 -128 74.7 -128 73 C-123.02477006 74.14285632 -118.45102849 76.26950581 -113.78808594 78.30566406 C-109.08670466 80.30799333 -104.81478478 81.41069281 -99.75 82.25 C-96.6171875 83.1171875 -96.6171875 83.1171875 -94 85 C-91.33349292 90.22444733 -90.51902009 96.06795977 -89.50683594 101.78808594 C-88.81704373 104.79845079 -87.53589039 107.33605452 -86 110 C-86.41626564 105.44298667 -86.87264593 100.90314449 -87.51171875 96.37109375 C-91.82325635 65.57876495 -85.5453889 37.38020333 -67.38671875 11.99609375 C-63.62597078 7.27515481 -59.43193582 3.0988467 -55 -1 C-71.24701672 8.19404822 -82.06167622 22.94328736 -89 40 C-95.43681228 39.48914188 -100.95942424 38.27057103 -107 36 C-105.66986063 31.17824479 -103.567651 27.57463615 -100.5 23.6875 C-100.05422607 23.12063477 -99.60845215 22.55376953 -99.14916992 21.96972656 C-77.13383753 -5.37995611 -31.4635012 -20.25855063 0 0 Z " fill="#5D5D5D" transform="translate(428,113)"/>
<path d="M0 0 C7.51214312 0.58572403 14.34343032 2.78576712 21.5 5.0625 C23.30597656 5.62807617 23.30597656 5.62807617 25.1484375 6.20507812 C28.1009244 7.13065934 31.05129861 8.06244294 34 9 C32.22436346 16.35047415 30.30299407 23.60964616 28 30.8125 C27.62875 32.00262695 27.62875 32.00262695 27.25 33.21679688 C23.41702469 45.30464349 18.60826897 51.59825806 7.1875 57.8125 C-10.36782437 65.79464441 -33.02305031 65.71089467 -51 59 C-63.13018575 53.87424818 -75.61608424 47.43465775 -84 37 C-84.36351562 35.70255859 -84.36351562 35.70255859 -84.734375 34.37890625 C-85.86523636 31.597034 -85.86523636 31.597034 -89.51953125 30.8125 C-90.94635204 30.52049947 -92.37779434 30.25040277 -93.8125 30 C-99.75968754 28.94511425 -102.94231475 27.84690104 -107 23 C-103.41515912 21.80505304 -102.96659918 22.23298515 -99.625 23.6875 C-84.51247632 29.28400877 -69.47056948 30.37744401 -53.5 30.375 C-52.34602219 30.37771912 -52.34602219 30.37771912 -51.16873169 30.38049316 C-29.42271532 30.42140003 -29.42271532 30.42140003 -10.95703125 20.0859375 C-5.58465816 14.35969552 -2.4561615 7.36848449 0 0 Z " fill="#5C5C5C" transform="translate(416,205)"/>
<path d="M0 0 C0.99 0.495 0.99 0.495 2 1 C1.32195312 1.62003906 0.64390625 2.24007812 -0.0546875 2.87890625 C-19.62294546 21.49856444 -31.44415202 47.71805242 -32.28198242 74.82299805 C-32.41690458 84.17148437 -31.14293652 93.20580614 -29.65625 102.41796875 C-29.09769782 105.98092073 -28.85798781 109.38460623 -29 113 C-34.70540656 107.97729166 -36.53338753 99.21084465 -38 92 C-38.125 89 -38.125 89 -38 87 C-39.19625 86.773125 -40.3925 86.54625 -41.625 86.3125 C-51.38988523 84.13228978 -60.69822012 80.33641708 -69.6953125 76.015625 C-71.80567692 75.0856339 -73.76421235 74.52586008 -76 74 C-76.22220512 67.17413637 -75.44646056 61.09805993 -74 54.4375 C-73.80921875 53.52419922 -73.6184375 52.61089844 -73.421875 51.66992188 C-72.95588071 49.44479913 -72.48183025 47.22173724 -72 45 C-71.06414062 44.80083984 -71.06414062 44.80083984 -70.109375 44.59765625 C-67.64992786 43.90081289 -66.65482293 42.90304637 -65 41 C-64.01 41.495 -63.02 41.99 -62 42.5 C-56.39292389 44.90627558 -50.88045806 44.47011452 -45 43 C-45 42.01 -45 41.02 -45 40 C-41.04 40.66 -37.08 41.32 -33 42 C-32.67 40.35 -32.34 38.7 -32 37 C-25.24573329 22.04088581 -13.52357161 9.18362886 0 0 Z " fill="#D5D6D6" transform="translate(372,111)"/>
<path d="M0 0 C3.96 -0.103125 7.92 -0.20625 12 -0.3125 C13.84851563 -0.38078003 13.84851563 -0.38078003 15.734375 -0.45043945 C22.75030269 -0.53847935 27.691094 0.18522026 33 5 C36.79652611 9.45788201 37.64782136 13.69528484 37.3828125 19.5078125 C36.48323896 25.36421986 33.78518948 30.24531004 29.12255859 33.99438477 C24.23636593 36.30934078 18.40197236 35.48977966 13.125 35.3125 C8.79375 35.209375 4.4625 35.10625 0 35 C0 23.45 0 11.9 0 0 Z " fill="#FCFCFC" transform="translate(639,136)"/>
<path d="M0 0 C-3.02983766 0.9254029 -5.24925024 0.9830743 -8.375 0.5625 C-34.09469992 -1.90988771 -54.14552399 2.28271252 -74.8125 18.3125 C-82.94073202 25.26758513 -89.28605778 33.40629849 -94 43 C-93.030625 43.268125 -92.06125 43.53625 -91.0625 43.8125 C-90.051875 44.204375 -89.04125 44.59625 -88 45 C-87.67 45.99 -87.34 46.98 -87 48 C-95.43302928 51.37321171 -101.83724382 50.17440518 -110 47 C-110.92718689 43.91863039 -111.14268368 42.38328753 -110.00390625 39.32421875 C-109.52824219 38.45410156 -109.05257813 37.58398438 -108.5625 36.6875 C-108.08941406 35.80449219 -107.61632812 34.92148438 -107.12890625 34.01171875 C-106.75636719 33.34785156 -106.38382812 32.68398437 -106 32 C-105.34 32 -104.68 32 -104 32 C-103.690625 31.21625 -103.38125 30.4325 -103.0625 29.625 C-102 27 -102 27 -101 25 C-100.34 25 -99.68 25 -99 25 C-98.731875 24.401875 -98.46375 23.80375 -98.1875 23.1875 C-97.00082594 21.00152146 -95.90400887 19.58667406 -94 18 C-93.34 18 -92.68 18 -92 18 C-92 17.34 -92 16.68 -92 16 C-89.86742157 14.2807584 -87.74189989 12.69009993 -85.5 11.125 C-84.53694946 10.44618774 -84.53694946 10.44618774 -83.55444336 9.75366211 C-79.1824173 6.71549322 -74.88696463 4.14340554 -70 2 C-68.93523437 1.52820313 -67.87046875 1.05640625 -66.7734375 0.5703125 C-46.3726965 -8.10679192 -20.16609388 -10.49044278 0 0 Z " fill="#D8DAD9" transform="translate(415,106)"/>
<path d="M0 0 C1.66917622 0.32053022 3.3352963 0.65699786 5 1 C5.8971875 1.17273438 6.794375 1.34546875 7.71875 1.5234375 C11.19318195 2.58723829 13.26555154 3.56250521 16 6 C18.11995905 10.50952767 18.96263341 15.37566856 19.90234375 20.23828125 C20.87244187 24.88741296 22.07700899 29.18105118 25 33 C29.81582237 35.83591958 34.85741316 36.74243463 40.3125 37.5625 C41.10462891 37.68471924 41.89675781 37.80693848 42.71289062 37.93286133 C44.35540751 38.18083449 45.99882101 38.4229394 47.64306641 38.65917969 C49.11034217 38.87135257 50.57646621 39.09187042 52.04052734 39.32519531 C68.53109656 41.94011064 85.35874513 41.18627201 102 41 C86.83491416 51.11005723 54.84034875 47.70950752 37.50512695 44.41308594 C32.9618077 43.41059548 28.47920942 42.25523568 24 41 C22.69572059 40.67284789 21.39107612 40.34714487 20.0859375 40.0234375 C13.5736528 38.20126538 9.42690491 35.93996851 6 30 C1.1711321 20.85734344 -0.47780437 10.27279401 0 0 Z " fill="#D6D7D7" transform="translate(296,190)"/>
<path d="M0 0 C0.66128906 0.61359375 1.32257813 1.2271875 2.00390625 1.859375 C5.48907519 4.34943051 8.85847718 5.23083327 12.9375 6.25 C18.96990278 7.94220474 22.3605993 9.35316227 25.6875 14.89453125 C34.42326302 28.9081511 54.12820839 34.88458729 69.27563477 38.55078125 C72.57207224 39.09432861 75.7095706 39.11187417 79.05078125 39.09765625 C80.03899117 39.09553383 80.03899117 39.09553383 81.04716492 39.09336853 C83.13565762 39.087805 85.22404011 39.07525947 87.3125 39.0625 C88.73502449 39.05748028 90.15755066 39.0529182 91.58007812 39.04882812 C95.05342077 39.03784757 98.52669961 39.02060835 102 39 C89.13119822 47.57920119 69.07641905 46.63688409 54.5 43.8125 C45.58372529 41.57281671 37.17113268 38.18284173 29 34 C29 33.34 29 32.68 29 32 C28.41605469 31.88785156 27.83210938 31.77570313 27.23046875 31.66015625 C23.19410123 30.46550457 20.23022283 27.61848151 17 25 C16.26136719 24.40960938 15.52273438 23.81921875 14.76171875 23.2109375 C8.6018968 18.040517 0.02656316 10.43248307 -1 2 C-0.67 1.34 -0.34 0.68 0 0 Z " fill="#D8D8D8" transform="translate(309,228)"/>
<path d="M0 0 C2.3336707 2.3336707 2.65486013 3.73448713 3.515625 6.890625 C3.79462646 7.9002832 4.07362793 8.90994141 4.36108398 9.95019531 C4.80109741 11.58359863 4.80109741 11.58359863 5.25 13.25 C5.55429932 14.36213867 5.85859863 15.47427734 6.17211914 16.62011719 C6.80426823 18.93225781 7.43387051 21.24509613 8.06103516 23.55859375 C8.95514965 26.83561868 9.86986557 30.1060385 10.79296875 33.375 C11.34129073 35.33329277 11.88947442 37.29162426 12.4375 39.25 C12.6962793 40.15911133 12.95505859 41.06822266 13.22167969 42.00488281 C13.45661133 42.85405273 13.69154297 43.70322266 13.93359375 44.578125 C14.14040771 45.31450195 14.34722168 46.05087891 14.56030273 46.80957031 C15 49 15 49 15 54 C5.43 54 -4.14 54 -14 54 C-11.75067941 40.50407644 -11.75067941 40.50407644 -9.94140625 34.43359375 C-9.75158676 33.78858414 -9.56176727 33.14357452 -9.36619568 32.47901917 C-8.77156125 30.46315124 -8.16748038 28.4502841 -7.5625 26.4375 C-6.96497861 24.42641929 -6.3694821 22.41474734 -5.77426147 20.40298462 C-5.20371279 18.47517593 -4.63141659 16.54788471 -4.05908203 14.62060547 C-2.63870567 9.76486977 -1.30086278 4.88896387 0 0 Z " fill="#FAFAFA" transform="translate(524,150)"/>
<path d="M0 0 C1.65 0 3.3 0 5 0 C5 50.49 5 100.98 5 153 C3.35 153 1.7 153 0 153 C0 102.51 0 52.02 0 0 Z " fill="#5B5B5B" transform="translate(857,103)"/>
<path d="M0 0 C3.98561154 2.62688033 6.23980531 5.28191592 7.75 9.8125 C8.28644746 16.78631695 6.78986645 21.41565692 2.25 26.75 C-1.3928725 29.47534102 -5.12037891 29.57472648 -9.5546875 29.36328125 C-13.95566385 28.4639513 -16.55583929 26.3374947 -19.25 22.8125 C-21.37283802 18.47452666 -21.67782616 14.60415302 -21.25 9.8125 C-19.61451232 5.64200641 -17.67730622 2.70428962 -14.25 -0.1875 C-9.22141801 -1.863694 -4.90969589 -1.79392735 0 0 Z " fill="#FBFBFB" transform="translate(1221.25,146.1875)"/>
<path d="M0 0 C4.16088642 1.75681871 6.42889949 4.32699927 9 8 C10.68259071 13.04777214 10.63436918 17.35064013 8.75 22.25 C6.29061775 26.11474354 4.39676672 28.53441109 0 30 C-4.81591705 30.58023097 -9.42643901 31.01130302 -13.4375 27.9375 C-17.1334102 23.70072489 -18.74083144 20.0733485 -19.4375 14.5 C-18.72100047 8.76800372 -16.56059855 5.4154266 -12.3125 1.5625 C-8.03678295 -0.45434766 -4.64839516 -0.70586741 0 0 Z " fill="#FAFAFA" transform="translate(1019,145)"/>
<path d="M0 0 C3.98561154 2.62688033 6.23980531 5.28191592 7.75 9.8125 C8.17079469 15.28283097 7.38870885 18.9900321 4.75 23.8125 C-0.00988201 28.22409796 -3.25859172 29.28726825 -9.63671875 29.22265625 C-14.0244837 28.53399359 -16.5609844 26.23844699 -19.25 22.8125 C-21.37283802 18.47452666 -21.67782616 14.60415302 -21.25 9.8125 C-19.61451232 5.64200641 -17.67730622 2.70428962 -14.25 -0.1875 C-9.22141801 -1.863694 -4.90969589 -1.79392735 0 0 Z " fill="#FAFAFA" transform="translate(932.25,146.1875)"/>
<path d="M0 0 C0.76957031 0.34611328 0.76957031 0.34611328 1.5546875 0.69921875 C10.11176163 4.34389847 19.03112964 6.61611725 28 9 C29.12351253 12.37053759 28.77740045 14.57194107 28 18 C27.86081463 19.69157394 27.7564164 21.38630373 27.68359375 23.08203125 C27.64169922 24.01337891 27.59980469 24.94472656 27.55664062 25.90429688 C27.51732422 26.86400391 27.47800781 27.82371094 27.4375 28.8125 C27.39431641 29.79154297 27.35113281 30.77058594 27.30664062 31.77929688 C27.2009774 34.18607027 27.09887673 36.59293983 27 39 C19.20744828 38.09720437 12.80115211 37.00067771 6 33 C5.51967344 24.28296246 6.92686581 16.45295786 9 8 C8.23300781 7.85691406 7.46601563 7.71382812 6.67578125 7.56640625 C3.94687839 6.98875528 1.55896641 6.09669989 -1 5 C-0.67 3.35 -0.34 1.7 0 0 Z " fill="#5D5E5D" transform="translate(306,152)"/>
<path d="M0 0 C2.7302389 -0.1083667 5.45614543 -0.18746694 8.1875 -0.25 C8.95642578 -0.28351563 9.72535156 -0.31703125 10.51757812 -0.3515625 C14.3973204 -0.41816752 16.5044046 -0.28849078 19.92578125 1.703125 C24.25650299 6.49872647 24.3928951 11.11896887 24.2421875 17.33984375 C23.9146546 20.93742282 23.2227304 23.13196077 21 26 C14.89886241 29.97900278 8.09356425 29.53458745 1 29 C0 28 0 28 -0.11352539 25.31616211 C-0.10828857 24.14835205 -0.10305176 22.98054199 -0.09765625 21.77734375 C-0.09443359 20.51728516 -0.09121094 19.25722656 -0.08789062 17.95898438 C-0.07953403 16.61848891 -0.07106907 15.27799412 -0.0625 13.9375 C-0.0574866 12.59310058 -0.05292342 11.2486994 -0.04882812 9.90429688 C-0.03699488 6.60282059 -0.02050971 3.30143197 0 0 Z " fill="#FAFAFA" transform="translate(1222,185)"/>
<path d="M0 0 C0.71671875 -0.02900391 1.4334375 -0.05800781 2.171875 -0.08789062 C5.8638433 -0.13200422 8.03121579 0.17850914 11.203125 2.12109375 C14.04231714 5.1607632 14.25 7.19204481 14.25 11.3125 C12.8125 14.75 12.8125 14.75 11.25 17.3125 C11.91 18.3025 12.57 19.2925 13.25 20.3125 C13.8828125 22.57421875 13.8828125 22.57421875 14.375 25 C14.54257813 25.80824219 14.71015625 26.61648437 14.8828125 27.44921875 C15.00398438 28.06410156 15.12515625 28.67898437 15.25 29.3125 C13.93 29.6425 12.61 29.9725 11.25 30.3125 C8.68383368 26.46325052 8.69902324 23.8775696 8.25 19.3125 C4.29 19.3125 0.33 19.3125 -3.75 19.3125 C-3.75 22.6125 -3.75 25.9125 -3.75 29.3125 C-5.07 29.6425 -6.39 29.9725 -7.75 30.3125 C-9.58034055 28.48215945 -8.88042797 25.58038008 -8.8828125 23.125 C-8.88410156 21.86945313 -8.88539062 20.61390625 -8.88671875 19.3203125 C-8.88462402 18.66321289 -8.8825293 18.00611328 -8.88037109 17.32910156 C-8.87502234 15.32088665 -8.88031691 13.31289541 -8.88671875 11.3046875 C-8.88542969 10.04914063 -8.88414063 8.79359375 -8.8828125 7.5 C-8.88112061 5.75783203 -8.88112061 5.75783203 -8.87939453 3.98046875 C-8.61861811 -1.39644593 -4.35616109 0.05751973 0 0 Z " fill="#767676" transform="translate(1042.75,144.6875)"/>
<path d="M0 0 C0.66902344 -0.020625 1.33804687 -0.04125 2.02734375 -0.0625 C6.47605792 -0.09746043 9.20358666 0.55393484 12.75 3.25 C14.70808905 5.83111739 14.77177872 6.98865536 14.5 10.25 C13.84449955 12.87200178 13.09306681 14.92201752 11.75 17.25 C12.41 18.24 13.07 19.23 13.75 20.25 C14.3828125 22.51171875 14.3828125 22.51171875 14.875 24.9375 C15.04257813 25.74574219 15.21015625 26.55398437 15.3828125 27.38671875 C15.50398438 28.00160156 15.62515625 28.61648437 15.75 29.25 C14.43 29.58 13.11 29.91 11.75 30.25 C9.18383368 26.40075052 9.19902324 23.8150696 8.75 19.25 C4.79 19.25 0.83 19.25 -3.25 19.25 C-3.25 22.55 -3.25 25.85 -3.25 29.25 C-4.57 29.58 -5.89 29.91 -7.25 30.25 C-9.08034055 28.41965945 -8.38042797 25.51788008 -8.3828125 23.0625 C-8.38410156 21.80695313 -8.38539062 20.55140625 -8.38671875 19.2578125 C-8.38462402 18.60071289 -8.3825293 17.94361328 -8.38037109 17.26660156 C-8.37502234 15.25838665 -8.38031691 13.25039541 -8.38671875 11.2421875 C-8.38542969 9.98664063 -8.38414063 8.73109375 -8.3828125 7.4375 C-8.38112061 5.69533203 -8.38112061 5.69533203 -8.37939453 3.91796875 C-8.12495245 -1.328339 -4.27783489 0.03222474 0 0 Z " fill="#5F5F5F" transform="translate(1242.25,144.75)"/>
<path d="M0 0 C4.2365809 1.52669582 5.85424109 4.30875664 8.25 8 C8.95640625 9.0725 9.6628125 10.145 10.390625 11.25 C12 14 12 14 12 16 C12.66 16 13.32 16 14 16 C14.24492188 15.29488281 14.48984375 14.58976563 14.7421875 13.86328125 C16.17467528 10.60236963 17.99521869 8.03865885 20.125 5.1875 C20.84945313 4.21167969 21.57390625 3.23585937 22.3203125 2.23046875 C22.87460938 1.49441406 23.42890625 0.75835937 24 0 C24.99 0.33 25.98 0.66 27 1 C27 10.24 27 19.48 27 29 C25.68 29 24.36 29 23 29 C22.505 19.595 22.505 19.595 22 10 C20.9275 11.815 19.855 13.63 18.75 15.5 C16.921875 18.59375 16.921875 18.59375 15 21 C13.68 21 12.36 21 11 21 C8.25328484 17.5610233 6.24528609 13.79971492 4 10 C3.67 16.27 3.34 22.54 3 29 C1.68 29 0.36 29 -1 29 C-1.02465881 25.03069011 -1.04284023 21.06140966 -1.05493164 17.09204102 C-1.05997057 15.74079614 -1.06680177 14.38955674 -1.07543945 13.03833008 C-1.08752419 11.09979566 -1.09269828 9.161222 -1.09765625 7.22265625 C-1.10289307 6.05484619 -1.10812988 4.88703613 -1.11352539 3.68383789 C-1 1 -1 1 0 0 Z " fill="#656565" transform="translate(1132,145)"/>
<path d="M0 0 C2.3925 -0.0825 4.785 -0.165 7.25 -0.25 C7.99668945 -0.28641602 8.74337891 -0.32283203 9.51269531 -0.36035156 C12.85235491 -0.4160425 14.70515662 -0.20845615 17.453125 1.734375 C19.97253815 5.42442457 19.73357774 8.70107668 19 13 C17.6875 15.5625 17.6875 15.5625 15 17 C11.26589068 17.31699633 7.76240217 17.17916201 4 17 C4 20.63 4 24.26 4 28 C2.68 28 1.36 28 0 28 C0 18.76 0 9.52 0 0 Z " fill="#606060" transform="translate(986,185)"/>
<path d="M0 0 C3.98561154 2.62688033 6.23980531 5.28191592 7.75 9.8125 C8.28644746 16.78631695 6.78986645 21.41565692 2.25 26.75 C-1.3928725 29.47534102 -5.12037891 29.57472648 -9.5546875 29.36328125 C-13.95566385 28.4639513 -16.55583929 26.3374947 -19.25 22.8125 C-21.37283802 18.47452666 -21.67782616 14.60415302 -21.25 9.8125 C-19.61451232 5.64200641 -17.67730622 2.70428962 -14.25 -0.1875 C-9.22141801 -1.863694 -4.90969589 -1.79392735 0 0 Z M-14.3125 4.625 C-17.11211385 9.23081633 -16.99600061 13.54337988 -16.25 18.8125 C-14.99314546 22.12708848 -14.32989466 22.75923689 -11.25 24.8125 C-5.43051663 25.39320527 -5.43051663 25.39320527 -0.3125 22.9375 C2.59485752 19.94204073 2.96407848 18.1474309 3.125 14.0625 C3.06917523 10.56076435 2.83502823 8.09271238 0.8125 5.1875 C-2.75988137 2.4170818 -4.66608792 1.95800871 -9.08984375 2.3125 C-11.50981157 2.75803119 -11.50981157 2.75803119 -14.3125 4.625 Z " fill="#6A6A6A" transform="translate(1221.25,146.1875)"/>
<path d="M0 0 C4.16088642 1.75681871 6.42889949 4.32699927 9 8 C10.68259071 13.04777214 10.63436918 17.35064013 8.75 22.25 C6.29061775 26.11474354 4.39676672 28.53441109 0 30 C-4.81591705 30.58023097 -9.42643901 31.01130302 -13.4375 27.9375 C-17.1334102 23.70072489 -18.74083144 20.0733485 -19.4375 14.5 C-18.72100047 8.76800372 -16.56059855 5.4154266 -12.3125 1.5625 C-8.03678295 -0.45434766 -4.64839516 -0.70586741 0 0 Z M-13.19140625 8.01953125 C-14.79762461 11.9536023 -14.64931711 15.8554227 -14 20 C-12.30596911 23.78365532 -12.30596911 23.78365532 -9 26 C-4.36196623 26.63784354 -1.01684113 26.60180393 3.0625 24.1875 C5.92193002 19.48327641 5.94862014 15.36244773 5 10 C3.73467125 6.82759683 2.88364152 6.1774436 0 4 C-5.3551256 2.59585314 -9.85002426 3.1519817 -13.19140625 8.01953125 Z " fill="#616161" transform="translate(1019,145)"/>
<path d="M0 0 C3.98561154 2.62688033 6.23980531 5.28191592 7.75 9.8125 C8.17079469 15.28283097 7.38870885 18.9900321 4.75 23.8125 C-0.00988201 28.22409796 -3.25859172 29.28726825 -9.63671875 29.22265625 C-14.0244837 28.53399359 -16.5609844 26.23844699 -19.25 22.8125 C-21.37283802 18.47452666 -21.67782616 14.60415302 -21.25 9.8125 C-19.61451232 5.64200641 -17.67730622 2.70428962 -14.25 -0.1875 C-9.22141801 -1.863694 -4.90969589 -1.79392735 0 0 Z M-14.3125 4.5625 C-17.27380582 9.52985169 -17.19135575 14.17992513 -16.25 19.8125 C-14.55900009 23.25457799 -14.55900009 23.25457799 -11.25 24.8125 C-8.0587142 25.54539927 -5.43440604 25.60140349 -2.25 24.8125 C1.21885352 22.1223687 2.38979476 20.65222595 3.22265625 16.3984375 C3.47030062 12.19483308 3.22141709 8.7295314 0.8125 5.1875 C-2.75924319 2.41757671 -4.66640625 1.95455577 -9.08984375 2.31640625 C-11.50223006 2.76081051 -11.50223006 2.76081051 -14.3125 4.5625 Z " fill="#656565" transform="translate(932.25,146.1875)"/>
<path d="M0 0 C3.06000345 1.3358495 4.84632631 2.686405 6.91015625 5.30078125 C7.42513672 5.94853516 7.94011719 6.59628906 8.47070312 7.26367188 C9.25864258 8.2778418 9.25864258 8.2778418 10.0625 9.3125 C10.59166016 9.97701172 11.12082031 10.64152344 11.66601562 11.32617188 C14.41443012 14.81255463 16.69418083 18.15696804 19 22 C19.33 14.74 19.66 7.48 20 0 C20.99 0 21.98 0 23 0 C23 9.9 23 19.8 23 30 C18.90035998 28.97508999 18.46773707 28.83356108 16.08984375 25.76171875 C15.57486328 25.10623047 15.05988281 24.45074219 14.52929688 23.77539062 C13.74135742 22.74188477 13.74135742 22.74188477 12.9375 21.6875 C12.40833984 21.01009766 11.87917969 20.33269531 11.33398438 19.63476562 C8.85254328 16.44967875 6.42270303 13.23027071 4 10 C3.67 16.27 3.34 22.54 3 29 C1.68 29 0.36 29 -1 29 C-1.02465881 25.03069011 -1.04284023 21.06140966 -1.05493164 17.09204102 C-1.05997057 15.74079614 -1.06680177 14.38955674 -1.07543945 13.03833008 C-1.08752419 11.09979566 -1.09269828 9.161222 -1.09765625 7.22265625 C-1.10289307 6.05484619 -1.10812988 4.88703613 -1.11352539 3.68383789 C-1 1 -1 1 0 0 Z " fill="#686868" transform="translate(946,145)"/>
<path d="M0 0 C2.7302389 -0.1083667 5.45614543 -0.18746694 8.1875 -0.25 C8.95642578 -0.28351563 9.72535156 -0.31703125 10.51757812 -0.3515625 C14.3973204 -0.41816752 16.5044046 -0.28849078 19.92578125 1.703125 C24.25650299 6.49872647 24.3928951 11.11896887 24.2421875 17.33984375 C23.9146546 20.93742282 23.2227304 23.13196077 21 26 C14.89886241 29.97900278 8.09356425 29.53458745 1 29 C0 28 0 28 -0.11352539 25.31616211 C-0.10828857 24.14835205 -0.10305176 22.98054199 -0.09765625 21.77734375 C-0.09443359 20.51728516 -0.09121094 19.25722656 -0.08789062 17.95898438 C-0.07953403 16.61848891 -0.07106907 15.27799412 -0.0625 13.9375 C-0.0574866 12.59310058 -0.05292342 11.2486994 -0.04882812 9.90429688 C-0.03699488 6.60282059 -0.02050971 3.30143197 0 0 Z M4 3 C4 10.26 4 17.52 4 25 C14.03613361 25.9295369 14.03613361 25.9295369 18.1875 23.125 C21.22292526 17.89150818 20.68616557 12.74466226 19.25 7 C17.95654583 4.54373124 17.95654583 4.54373124 14 3 C10.7 3 7.4 3 4 3 Z " fill="#656565" transform="translate(1222,185)"/>
<path d="M0 0 C1.32 0 2.64 0 4 0 C5.70574463 4.07594925 7.38637865 8.16178968 9.0625 12.25 C9.79049805 13.98830078 9.79049805 13.98830078 10.53320312 15.76171875 C11.21479492 17.43427734 11.21479492 17.43427734 11.91015625 19.140625 C12.54642944 20.68024902 12.54642944 20.68024902 13.19555664 22.25097656 C14.01938918 25.06625864 14.03958265 26.30666393 13 29 C12.34 29 11.68 29 11 29 C9.515 25.535 9.515 25.535 8 22 C3.71 21.67 -0.58 21.34 -5 21 C-5.66 23.31 -6.32 25.62 -7 28 C-8.32 28 -9.64 28 -11 28 C-10.37386216 24.35627114 -9.3731497 21.15125221 -7.96875 17.734375 C-7.57042969 16.76242188 -7.17210937 15.79046875 -6.76171875 14.7890625 C-6.13716797 13.28472656 -6.13716797 13.28472656 -5.5 11.75 C-5.08363281 10.73164063 -4.66726563 9.71328125 -4.23828125 8.6640625 C-1.13722364 1.13722364 -1.13722364 1.13722364 0 0 Z " fill="#676767" transform="translate(1017,185)"/>
<path d="M0 0 C1.83666992 0.17456055 1.83666992 0.17456055 4 1 C5.38793945 3.25317383 5.38793945 3.25317383 6.61328125 6.20703125 C7.05607422 7.26857422 7.49886719 8.33011719 7.95507812 9.42382812 C8.40302734 10.54208984 8.85097656 11.66035156 9.3125 12.8125 C9.77978516 13.91916016 10.24707031 15.02582031 10.72851562 16.16601562 C14.43050174 25.20498616 14.43050174 25.20498616 13 29 C12.01 28.67 11.02 28.34 10 28 C8.8125 24.4375 8.8125 24.4375 8 21 C3.71 21 -0.58 21 -5 21 C-5.66 23.31 -6.32 25.62 -7 28 C-8.32 28.33 -9.64 28.66 -11 29 C-10.3913457 24.23343021 -9.01393622 20.04047982 -7.1875 15.625 C-6.92050293 14.96814209 -6.65350586 14.31128418 -6.37841797 13.63452148 C-4.45872964 8.96689686 -2.36453028 4.45623015 0 0 Z " fill="#676767" transform="translate(895,185)"/>
<path d="M0 0 C1.89916992 0.11206055 1.89916992 0.11206055 4 1 C5.38793945 3.25317383 5.38793945 3.25317383 6.61328125 6.20703125 C7.05607422 7.26857422 7.49886719 8.33011719 7.95507812 9.42382812 C8.40302734 10.54208984 8.85097656 11.66035156 9.3125 12.8125 C9.77978516 13.91916016 10.24707031 15.02582031 10.72851562 16.16601562 C14.43050174 25.20498616 14.43050174 25.20498616 13 29 C12.01 28.67 11.02 28.34 10 28 C9.34 26.02 8.68 24.04 8 22 C3.71 22 -0.58 22 -5 22 C-5.99 24.31 -6.98 26.62 -8 29 C-8.99 28.67 -9.98 28.34 -11 28 C-10.37386216 24.35627114 -9.3731497 21.15125221 -7.96875 17.734375 C-7.57042969 16.76242188 -7.17210937 15.79046875 -6.76171875 14.7890625 C-6.13716797 13.28472656 -6.13716797 13.28472656 -5.5 11.75 C-5.08363281 10.73164063 -4.66726563 9.71328125 -4.23828125 8.6640625 C-1.13722364 1.13722364 -1.13722364 1.13722364 0 0 Z " fill="#666666" transform="translate(956,185)"/>
<path d="M0 0 C3.0625 1.3125 3.0625 1.3125 5 3 C5 3.99 5 4.98 5 6 C3.7625 5.7525 3.7625 5.7525 2.5 5.5 C-1.41272317 4.94103955 -5.05183173 4.93192813 -9 5 C-10.01111093 8.04913228 -10.01111093 8.04913228 -9 11 C-6.81837057 11.72736913 -6.81837057 11.72736913 -4.25 12.3125 C0.35140707 13.63944809 3.2692864 14.85684832 6 19 C6 22.62761169 5.79195782 24.92005751 3.625 27.875 C-0.4701549 30.71010724 -5.23002403 30.4678085 -10 30 C-13.0625 28.75 -13.0625 28.75 -15 27 C-15 25.68 -15 24.36 -15 23 C-11.125 23.875 -11.125 23.875 -10 25 C-8.52351124 25.09823996 -7.04224583 25.12973519 -5.5625 25.125 C-4.75941406 25.12757813 -3.95632813 25.13015625 -3.12890625 25.1328125 C-0.94602069 25.13578326 -0.94602069 25.13578326 1 24 C1 22.35 1 20.7 1 19 C-0.10408203 18.76216797 -0.10408203 18.76216797 -1.23046875 18.51953125 C-11.82719547 15.98583569 -11.82719547 15.98583569 -15 11 C-15.14742311 6.79844136 -14.67154038 4.81843984 -12 1.5625 C-7.90406775 -0.57079805 -4.53049768 -0.68817686 0 0 Z " fill="#656565" transform="translate(990,145)"/>
<path d="M0 0 C3 2 3 2 5 4 C4.67 4.99 4.34 5.98 4 7 C2.9790625 6.505 2.9790625 6.505 1.9375 6 C-1.50840238 4.82692685 -4.38397422 4.85819507 -8 5 C-8.66 6.98 -9.32 8.96 -10 11 C-9.33613281 11.18175781 -8.67226562 11.36351562 -7.98828125 11.55078125 C2.1678721 14.44194899 2.1678721 14.44194899 5 17 C6.0625 20.375 6.0625 20.375 6 24 C4.23358828 26.80189446 2.96950178 28.51524911 0 30 C-4.31397888 30.44072083 -7.97176839 30.42842984 -12 28.75 C-14.18767059 26.83578823 -14.70488433 25.85278483 -15 23 C-12.83125748 23.50603992 -11.00032373 23.99983813 -9 25 C-7.08499697 25.15898854 -7.08499697 25.15898854 -5 25.125 C-4.29875 25.12757813 -3.5975 25.13015625 -2.875 25.1328125 C-0.90846225 25.11377236 -0.90846225 25.11377236 1 24 C1 22.35 1 20.7 1 19 C0.25234375 18.82984375 -0.4953125 18.6596875 -1.265625 18.484375 C-2.25046875 18.24203125 -3.2353125 17.9996875 -4.25 17.75 C-5.22453125 17.51796875 -6.1990625 17.2859375 -7.203125 17.046875 C-10.37601544 15.85925679 -11.89715693 14.63588933 -14 12 C-14.625 8.5625 -14.625 8.5625 -14 5 C-9.68288753 -0.07260715 -6.53961033 -0.93423005 0 0 Z " fill="#686868" transform="translate(1157,184)"/>
<path d="M0 0 C3.4375 2 3.4375 2 6 4 C5.67 4.99 5.34 5.98 5 7 C3.9790625 6.505 3.9790625 6.505 2.9375 6 C-0.50840238 4.82692685 -3.38397422 4.85819507 -7 5 C-7.66 6.98 -8.32 8.96 -9 11 C-8.32453125 11.19335938 -7.6490625 11.38671875 -6.953125 11.5859375 C-6.06109375 11.84632813 -5.1690625 12.10671875 -4.25 12.375 C-3.36828125 12.63023437 -2.4865625 12.88546875 -1.578125 13.1484375 C0.78095552 13.92764894 2.86182297 14.73828292 5 16 C6.61758074 19.23516148 6.70958991 22.51405346 6 26 C2.91485799 29.08514201 0.28274573 30.23159876 -4 30.4375 C-7.85242715 30.25228716 -10.68487986 28.98907208 -14 27 C-14 25.68 -14 24.36 -14 23 C-11.83125748 23.50603992 -10.00032373 23.99983813 -8 25 C-6.29297265 25.06996014 -4.58331997 25.08440154 -2.875 25.0625 C-1.96492187 25.05347656 -1.05484375 25.04445312 -0.1171875 25.03515625 C0.58148437 25.02355469 1.28015625 25.01195312 2 25 C1.83115399 22.05295854 1.83115399 22.05295854 0 19 C-2.77490581 17.69238498 -5.52262034 16.80598177 -8.46875 15.95703125 C-11 15 -11 15 -13 12 C-13.65182515 6.86687697 -13.65182515 6.86687697 -13 4 C-8.95807085 0.05665449 -5.53676069 -0.79096581 0 0 Z " fill="#676767" transform="translate(925,184)"/>
<path d="M0 0 C0.99 0.33 1.98 0.66 3 1 C3.01981934 1.65597168 3.03963867 2.31194336 3.06005859 2.98779297 C3.15512507 5.95061069 3.26487752 8.91270532 3.375 11.875 C3.4059375 12.90753906 3.436875 13.94007813 3.46875 15.00390625 C3.50742188 15.99003906 3.54609375 16.97617188 3.5859375 17.9921875 C3.6173584 18.90339355 3.6487793 19.81459961 3.68115234 20.75341797 C3.79882511 23.19931186 3.79882511 23.19931186 6 25 C10.06095958 25.47213673 10.06095958 25.47213673 14 25 C16.65103458 22.11631863 17.38730598 20.11605335 17.51171875 16.234375 C17.54716797 15.34492188 17.58261719 14.45546875 17.61914062 13.5390625 C17.64169922 12.61867187 17.66425781 11.69828125 17.6875 10.75 C17.72166016 9.81414062 17.75582031 8.87828125 17.79101562 7.9140625 C17.87332162 5.60949467 17.9425263 3.30529881 18 1 C19.32 1 20.64 1 22 1 C22.08774066 4.20815845 22.14063706 7.41600462 22.1875 10.625 C22.21263672 11.52863281 22.23777344 12.43226563 22.26367188 13.36328125 C22.32195073 18.6860836 22.02126769 22.40999716 19 27 C15.49348387 30.00558526 12.40209942 30.47470979 7.9296875 30.2890625 C5.04238119 29.85655103 3.23927491 28.84410875 1 27 C-0.95292246 23.88069556 -1.24722963 21.480316 -1.23046875 17.83203125 C-1.22853516 16.85685547 -1.22660156 15.88167969 -1.22460938 14.87695312 C-1.21236328 13.86568359 -1.20011719 12.85441406 -1.1875 11.8125 C-1.18685547 10.78962891 -1.18621094 9.76675781 -1.18554688 8.71289062 C-1.14032251 1.14032251 -1.14032251 1.14032251 0 0 Z " fill="#646464" transform="translate(1102,145)"/>
<path d="M0 0 C3.4375 2 3.4375 2 6 4 C5.67 4.99 5.34 5.98 5 7 C4.34 6.67 3.68 6.34 3 6 C-0.86061033 4.71312989 -3.94150283 4.86242382 -8 5 C-8.33 6.65 -8.66 8.3 -9 10 C-5.75024275 12.16650483 -2.86632685 13.038988 0.84375 14.12109375 C3.22820346 15.09301771 4.43257075 15.96578148 6 18 C6.4375 21.4375 6.4375 21.4375 6 25 C4.13291495 27.36497439 2.67938569 28.66030715 0 30 C-5.69062784 30.37937519 -8.98375652 30.00974609 -14 27 C-14 25.68 -14 24.36 -14 23 C-11.83125748 23.50603992 -10.00032373 23.99983813 -8 25 C-6.29297265 25.06996014 -4.58331997 25.08440154 -2.875 25.0625 C-1.96492188 25.05347656 -1.05484375 25.04445312 -0.1171875 25.03515625 C0.58148437 25.02355469 1.28015625 25.01195312 2 25 C1.83115399 22.05295854 1.83115399 22.05295854 0 19 C-2.7449181 17.72712 -5.45861676 16.86909518 -8.37109375 16.0546875 C-11.4034573 14.83813749 -12.43731502 13.84028553 -14 11 C-14.0625 7.5 -14.0625 7.5 -13 4 C-8.8545141 0.15062024 -5.57629334 -0.79661333 0 0 Z " fill="#656565" transform="translate(1299,184)"/>
<path d="M0 0 C5.94 0 11.88 0 18 0 C18 0.99 18 1.98 18 3 C13.38 3 8.76 3 4 3 C4 5.97 4 8.94 4 12 C7.96 12 11.92 12 16 12 C16 13.32 16 14.64 16 16 C12.04 16 8.08 16 4 16 C4 18.97 4 21.94 4 25 C8.29 25 12.58 25 17 25 C17 26.32 17 27.64 17 29 C14.35409986 29.02684679 11.70846904 29.04676357 9.0625 29.0625 C8.30775391 29.07087891 7.55300781 29.07925781 6.77539062 29.08789062 C4.85005687 29.09652441 2.92464419 29.05224333 1 29 C0 28 0 28 -0.11352539 25.31616211 C-0.10828857 24.14835205 -0.10305176 22.98054199 -0.09765625 21.77734375 C-0.09443359 20.51728516 -0.09121094 19.25722656 -0.08789062 17.95898438 C-0.07953403 16.61848891 -0.07106907 15.27799412 -0.0625 13.9375 C-0.0574866 12.59310058 -0.05292342 11.2486994 -0.04882812 9.90429688 C-0.03699497 6.60284567 -0.01905886 3.3014174 0 0 Z " fill="#666666" transform="translate(1263,185)"/>
<path d="M0 0 C0.99 0 1.98 0 3 0 C3.01458252 0.58491211 3.02916504 1.16982422 3.04418945 1.77246094 C3.1188357 4.43229397 3.21543899 7.09089448 3.3125 9.75 C3.33505859 10.67039063 3.35761719 11.59078125 3.38085938 12.5390625 C3.41630859 13.42851562 3.45175781 14.31796875 3.48828125 15.234375 C3.51446533 16.05131836 3.54064941 16.86826172 3.56762695 17.70996094 C4.10140543 20.53708805 4.99804515 21.94733708 7 24 C11.6076576 24.63377851 11.6076576 24.63377851 15.68676758 22.77807617 C17.39499039 20.4651952 17.42507127 18.97264815 17.51171875 16.11328125 C17.54716797 15.17548828 17.58261719 14.23769531 17.61914062 13.27148438 C17.64169922 12.29501953 17.66425781 11.31855469 17.6875 10.3125 C17.72166016 9.32443359 17.75582031 8.33636719 17.79101562 7.31835938 C17.87350538 4.87901947 17.94265068 2.44003937 18 0 C19.32 0 20.64 0 22 0 C22.11689626 3.37470504 22.18747934 6.7488843 22.25 10.125 C22.30027344 11.55199219 22.30027344 11.55199219 22.3515625 13.0078125 C22.43524867 19.03321671 22.00439091 22.40650875 18 27 C14.5905957 29.58644464 11.1613551 29.36503115 7 29 C3.4613006 27.34860695 2.18929847 26.28394771 0 23 C-0.22705078 20.5480957 -0.22705078 20.5480957 -0.1953125 17.67578125 C-0.18886719 16.64775391 -0.18242188 15.61972656 -0.17578125 14.56054688 C-0.15064453 12.95276367 -0.15064453 12.95276367 -0.125 11.3125 C-0.11597656 10.22904297 -0.10695313 9.14558594 -0.09765625 8.02929688 C-0.0740734 5.3526429 -0.04116126 2.67643203 0 0 Z " fill="#666666" transform="translate(1194,185)"/>
<path d="M0 0 C0.76183594 -0.01417969 1.52367187 -0.02835938 2.30859375 -0.04296875 C4.79597315 0.21137334 6.41058106 0.94732804 8.5625 2.1875 C8.5625 3.1775 8.5625 4.1675 8.5625 5.1875 C7.67046875 5.14109375 6.7784375 5.0946875 5.859375 5.046875 C4.68890625 5.01078125 3.5184375 4.9746875 2.3125 4.9375 C1.15234375 4.89109375 -0.0078125 4.8446875 -1.203125 4.796875 C-4.5140473 4.90838018 -4.5140473 4.90838018 -6.796875 7.078125 C-9.79538359 10.93335033 -9.9672688 14.41958082 -9.4375 19.1875 C-7.70782287 22.93297604 -7.70782287 22.93297604 -4.4375 25.1875 C-2.2302077 25.25842842 -0.02082548 25.27165025 2.1875 25.25 C3.97027344 25.23646484 3.97027344 25.23646484 5.7890625 25.22265625 C7.16191406 25.20525391 7.16191406 25.20525391 8.5625 25.1875 C8.5625 26.1775 8.5625 27.1675 8.5625 28.1875 C4.2070358 30.64543691 0.47351334 30.85831295 -4.4375 30.1875 C-9.32517746 28.45195234 -12.14833954 25.81905721 -14.4375 21.1875 C-15.40392575 16.11026326 -15.61847183 11.2219208 -12.97265625 6.6640625 C-9.03786155 2.05544461 -6.16991493 0.05202289 0 0 Z " fill="#666666" transform="translate(898.4375,144.8125)"/>
<path d="M0 0 C2.5625 1.5 2.5625 1.5 4 3 C3.67 3.99 3.34 4.98 3 6 C2.505 5.835 2.01 5.67 1.5 5.5 C-3.79511437 4.44097713 -7.41111193 4.00694495 -12 6.875 C-14.82387569 11.28730576 -14.97766229 14.90278636 -14 20 C-12.52619186 23.3916257 -12.52619186 23.3916257 -9 25 C-4.63367347 25.39645822 -0.37055706 25.28795764 4 25 C3.67 26.32 3.34 27.64 3 29 C-1.52105277 30.50701759 -6.4621961 30.92649984 -10.96875 29.28125 C-14.99791629 27.16423043 -17.02524273 25.02457841 -19 21 C-19.85128275 16.15626717 -20.15294347 11.16410101 -17.79296875 6.734375 C-12.78085472 0.69446037 -7.73858218 -0.9797471 0 0 Z " fill="#676767" transform="translate(1124,184)"/>
<path d="M0 0 C1.58206057 0.00667536 3.16410534 0.0186375 4.74609375 0.03515625 C5.55240234 0.03966797 6.35871094 0.04417969 7.18945312 0.04882812 C9.18753131 0.06065107 11.18557158 0.07858711 13.18359375 0.09765625 C13.18359375 1.41765625 13.18359375 2.73765625 13.18359375 4.09765625 C8.56359375 4.09765625 3.94359375 4.09765625 -0.81640625 4.09765625 C-0.81640625 7.06765625 -0.81640625 10.03765625 -0.81640625 13.09765625 C3.14359375 13.09765625 7.10359375 13.09765625 11.18359375 13.09765625 C11.18359375 14.41765625 11.18359375 15.73765625 11.18359375 17.09765625 C7.22359375 17.09765625 3.26359375 17.09765625 -0.81640625 17.09765625 C-0.81640625 21.38765625 -0.81640625 25.67765625 -0.81640625 30.09765625 C-2.13640625 29.76765625 -3.45640625 29.43765625 -4.81640625 29.09765625 C-4.84106506 25.12834636 -4.85924648 21.15906591 -4.87133789 17.18969727 C-4.87637682 15.83845239 -4.88320802 14.48721299 -4.8918457 13.13598633 C-4.90393044 11.19745191 -4.90910453 9.25887825 -4.9140625 7.3203125 C-4.91929932 6.15250244 -4.92453613 4.98469238 -4.92993164 3.78149414 C-4.75201514 -0.42460498 -4.40383554 0.11268771 0 0 Z " fill="#5C5C5C" transform="translate(1182.81640625,144.90234375)"/>
<path d="M0 0 C0.495 0.33 0.99 0.66 1.5 1 C1.5 2.32 1.5 3.64 1.5 5 C1.005 4.835 0.51 4.67 0 4.5 C-5.26318606 3.44736279 -8.89927007 3.03289234 -13.5 5.8125 C-16.42190288 10.46928271 -16.37482174 14.64378008 -15.5 20 C-14.14237846 22.77564845 -14.14237846 22.77564845 -11.5 24 C-6.8731423 25.11387315 -3.13036722 25.01642207 1.5 24 C1.5 24.99 1.5 25.98 1.5 27 C-2.23603661 29.49069107 -6.16773937 29.55092332 -10.5 29 C-14.08273508 27.58042572 -17.17882726 26.1335832 -19.5 23 C-21.60417533 18.12717292 -22.6548249 13.29159671 -20.84765625 8.140625 C-16.79274435 -0.00400491 -8.65899482 -3.46359793 0 0 Z " fill="#6D6D6D" transform="translate(1054.5,185)"/>
<path d="M0 0 C7.26 0 14.52 0 22 0 C22 1.32 22 2.64 22 4 C19.03 4 16.06 4 13 4 C13 12.25 13 20.5 13 29 C11.68 29.33 10.36 29.66 9 30 C8 29 8 29 7.88647461 26.59155273 C7.89171143 25.54942627 7.89694824 24.5072998 7.90234375 23.43359375 C7.90556641 22.30888672 7.90878906 21.18417969 7.91210938 20.02539062 C7.92048828 18.84138672 7.92886719 17.65738281 7.9375 16.4375 C7.94201172 15.24962891 7.94652344 14.06175781 7.95117188 12.83789062 C7.96300325 9.89187774 7.97948713 6.94596319 8 4 C5.36 4 2.72 4 0 4 C0 2.68 0 1.36 0 0 Z " fill="#6F6F6F" transform="translate(1062,145)"/>
<path d="M0 0 C5.94 0 11.88 0 18 0 C18 0.99 18 1.98 18 3 C13.38 3 8.76 3 4 3 C4 5.97 4 8.94 4 12 C7.63 12 11.26 12 15 12 C15 13.32 15 14.64 15 16 C11.37 16 7.74 16 4 16 C4 19.96 4 23.92 4 28 C2.68 28 1.36 28 0 28 C0 18.76 0 9.52 0 0 Z " fill="#646464" transform="translate(1072,185)"/>
<path d="M0 0 C2.56364483 -0.10845031 5.12266279 -0.18749744 7.6875 -0.25 C8.40873047 -0.28351563 9.12996094 -0.31703125 9.87304688 -0.3515625 C13.72148799 -0.42185366 15.5851649 -0.25317545 18.95703125 1.8046875 C21.78943882 4.84830711 22 6.88072245 22 11 C20.5625 14.4375 20.5625 14.4375 19 17 C19.66 17.99 20.32 18.98 21 20 C21.6328125 22.26171875 21.6328125 22.26171875 22.125 24.6875 C22.29257813 25.49574219 22.46015625 26.30398437 22.6328125 27.13671875 C22.75398438 27.75160156 22.87515625 28.36648437 23 29 C21.68 29.33 20.36 29.66 19 30 C16.79334596 26.69001895 16.21737905 24.17978564 15.375 20.3125 C14.98441406 18.54326172 14.98441406 18.54326172 14.5859375 16.73828125 C14.39257812 15.83464844 14.19921875 14.93101562 14 14 C14.66 13.67 15.32 13.34 16 13 C16.04241723 10.66705225 16.04092937 8.33297433 16 6 C14.27828593 4.27828593 11.91165561 4.62995358 9.5625 4.4375 C8.57378906 4.35371094 7.58507813 4.26992187 6.56640625 4.18359375 C5.04692417 4.07489412 3.52336516 4 2 4 C1.34 4.66 0.68 5.32 0 6 C0 4.02 0 2.04 0 0 Z " fill="#686868" transform="translate(1035,145)"/>
<path d="M0 0 C7.59 0 15.18 0 23 0 C23 0.99 23 1.98 23 3 C19.7 3 16.4 3 13 3 C13 11.25 13 19.5 13 28 C11.68 28 10.36 28 9 28 C9 19.75 9 11.5 9 3 C6.03 3 3.06 3 0 3 C0 2.01 0 1.02 0 0 Z " fill="#626262" transform="translate(1166,185)"/>
<path d="M0 0 C4.13669598 3.42754809 6.56737819 6.38643417 7.1875 11.8125 C6.1975 11.8125 5.2075 11.8125 4.1875 11.8125 C3.8575 13.7925 3.5275 15.7725 3.1875 17.8125 C2.8575 17.8125 2.5275 17.8125 2.1875 17.8125 C2.16171875 17.22082031 2.1359375 16.62914062 2.109375 16.01953125 C1.83205374 12.15594192 1.40639343 9.25940741 -0.3125 5.75 C-3.52705315 3.25872131 -5.69057715 3.08879746 -9.6875 3.33203125 C-12.05927188 3.70055025 -12.05927188 3.70055025 -14.3125 5.875 C-16.02910712 9.23668894 -16.51870476 12.06661072 -16.8125 15.8125 C-17.1425 15.8125 -17.4725 15.8125 -17.8125 15.8125 C-18.1425 14.1625 -18.4725 12.5125 -18.8125 10.8125 C-19.8025 11.8025 -20.7925 12.7925 -21.8125 13.8125 C-21.4423852 7.64392002 -20.05474897 5.05474897 -15.8125 0.8125 C-10.8679113 -2.19103115 -5.27580946 -2.227564 0 0 Z " fill="#6D6D6D" transform="translate(1021.8125,146.1875)"/>
<path d="M0 0 C0.99 0.33 1.98 0.66 3 1 C3 10.24 3 19.48 3 29 C1.68 29 0.36 29 -1 29 C-1.33 22.73 -1.66 16.46 -2 10 C-2.99 11.485 -2.99 11.485 -4 13 C-4.99 12.67 -5.98 12.34 -7 12 C-5.16974789 7.33285711 -3.3502463 3.81234923 0 0 Z " fill="#5E5E5E" transform="translate(1156,145)"/>
<path d="M0 0 C0.99 0 1.98 0 3 0 C3 0.99 3 1.98 3 3 C3.99 3.33 4.98 3.66 6 4 C7.421875 6.58203125 7.421875 6.58203125 8.75 9.8125 C9.19859375 10.87082031 9.6471875 11.92914063 10.109375 13.01953125 C10.99217313 15.97380744 11.11580482 17.1900769 10 20 C9.01 19.67 8.02 19.34 7 19 C6.34 17.02 5.68 15.04 5 13 C0.71 13 -3.58 13 -8 13 C-8.99 15.31 -9.98 17.62 -11 20 C-11.99 19.67 -12.98 19.34 -14 19 C-12.88679459 13.11591428 -11.90112053 10.64442296 -7 7 C-7 7.66 -7 8.32 -7 9 C-3.7 9 -0.4 9 3 9 C1.515 4.545 1.515 4.545 0 0 Z " fill="#5F5F5F" transform="translate(959,194)"/>
<path d="M0 0 C1.95803507 -0.05389087 3.91648909 -0.09274217 5.875 -0.125 C7.51082031 -0.15980469 7.51082031 -0.15980469 9.1796875 -0.1953125 C12 0 12 0 14 2 C14.3125 5.5 14.3125 5.5 14 9 C9.43362969 12.04424687 5.43284541 11.12783166 0 11 C0 7.37 0 3.74 0 0 Z " fill="#F4F4F4" transform="translate(1238,149)"/>
<path d="M0 0 C2.31 0 4.62 0 7 0 C7 0.66 7 1.32 7 2 C7.85658203 1.96519531 7.85658203 1.96519531 8.73046875 1.9296875 C15.98338677 1.7682553 22.86663653 2.74774811 30 4 C30 4.66 30 5.32 30 6 C27.14839609 6.81434143 24.63373869 7.11881242 21.671875 7.09765625 C20.87265625 7.09443359 20.0734375 7.09121094 19.25 7.08789062 C18.425 7.07951172 17.6 7.07113281 16.75 7.0625 C15.90953125 7.05798828 15.0690625 7.05347656 14.203125 7.04882812 C12.13538599 7.03707961 10.06768376 7.01914522 8 7 C7.67 7.99 7.34 8.98 7 10 C7 9.01 7 8.02 7 7 C4.36 7 1.72 7 -1 7 C-0.67 4.69 -0.34 2.38 0 0 Z " fill="#DCDDDD" transform="translate(344,192)"/>
<path d="M0 0 C8.3984375 -0.1953125 8.3984375 -0.1953125 11 0 C13 2 13 2 13.3125 5.5 C13.1578125 7.2325 13.1578125 7.2325 13 9 C8.61501596 11.92332269 5.2225328 11.1356502 0 11 C0 7.37 0 3.74 0 0 Z " fill="#FAFAFA" transform="translate(1039,149)"/>
<path d="M0 0 C1.82421875 0.13671875 1.82421875 0.13671875 4 1 C5.51953125 3.58203125 5.51953125 3.58203125 6.8125 6.8125 C7.25207031 7.87082031 7.69164062 8.92914063 8.14453125 10.01953125 C8.98952228 12.96349542 9.10300994 14.20525702 8 17 C7.34 17 6.68 17 6 17 C5.01 14.69 4.02 12.38 3 10 C-1.29 9.67 -5.58 9.34 -10 9 C-10.66 11.31 -11.32 13.62 -12 16 C-13.32 16 -14.64 16 -16 16 C-15.47731534 13.23723823 -14.89130413 10.6739124 -14 8 C-9.40783236 5.18544564 -4.19012541 5.81859756 1 6 C0.67 4.02 0.34 2.04 0 0 Z " fill="#5C5C5C" transform="translate(1022,197)"/>
<path d="M0 0 C2.64 0 5.28 0 8 0 C8 0.66 8 1.32 8 2 C19.385 2.99 19.385 2.99 31 4 C31 4.66 31 5.32 31 6 C22.33003296 7.16711095 13.72630608 7.09744014 5 7 C4.67 7.66 4.34 8.32 4 9 C4 8.34 4 7.68 4 7 C2.68 7 1.36 7 0 7 C0 4.69 0 2.38 0 0 Z " fill="#D6D8D7" transform="translate(349,156)"/>
<path d="M0 0 C0.99 0.33 1.98 0.66 3 1 C3 10.57 3 20.14 3 30 C1.68 29.67 0.36 29.34 -1 29 C-1.02465881 25.03069011 -1.04284023 21.06140966 -1.05493164 17.09204102 C-1.05997057 15.74079614 -1.06680177 14.38955674 -1.07543945 13.03833008 C-1.08752419 11.09979566 -1.09269828 9.161222 -1.09765625 7.22265625 C-1.10289307 6.05484619 -1.10812988 4.88703613 -1.11352539 3.68383789 C-1 1 -1 1 0 0 Z " fill="#636363" transform="translate(1090,145)"/>
<path d="M0 0 C6.8359375 -0.1953125 6.8359375 -0.1953125 9 0 C11 2 11 2 11.25 5.5 C11 9 11 9 9 11 C5.98173347 11.27240673 3.03629378 11.08675125 0 11 C0 7.37 0 3.74 0 0 Z " fill="#F5F5F5" transform="translate(990,188)"/>
<path d="M0 0 C1.32 0 2.64 0 4 0 C4 9.24 4 18.48 4 28 C2.68 28 1.36 28 0 28 C0 18.76 0 9.52 0 0 Z " fill="#676767" transform="translate(1061,185)"/>
<path d="M0 0 C1.32 0 2.64 0 4 0 C4 9.24 4 18.48 4 28 C2.68 28 1.36 28 0 28 C0 18.76 0 9.52 0 0 Z " fill="#686868" transform="translate(1252,185)"/>
<path d="M0 0 C1.32 0 2.64 0 4 0 C4 9.24 4 18.48 4 28 C2.68 28 1.36 28 0 28 C0 18.76 0 9.52 0 0 Z " fill="#656565" transform="translate(937,185)"/>
<path d="M0 0 C0.99 0 1.98 0 3 0 C3 9.9 3 19.8 3 30 C-1 29 -1 29 -2.75 27.1875 C-4 25 -4 25 -4 21 C-3.01 21.33 -2.02 21.66 -1 22 C-0.67 14.74 -0.34 7.48 0 0 Z " fill="#5D5D5D" transform="translate(966,145)"/>
<path d="M0 0 C1.58206057 0.00667536 3.16410534 0.0186375 4.74609375 0.03515625 C5.55240234 0.03966797 6.35871094 0.04417969 7.18945312 0.04882812 C9.18753131 0.06065107 11.18557158 0.07858711 13.18359375 0.09765625 C13.18359375 1.41765625 13.18359375 2.73765625 13.18359375 4.09765625 C8.56359375 4.09765625 3.94359375 4.09765625 -0.81640625 4.09765625 C-1.14640625 5.41765625 -1.47640625 6.73765625 -1.81640625 8.09765625 C-2.14640625 8.09765625 -2.47640625 8.09765625 -2.81640625 8.09765625 C-3.14640625 15.02765625 -3.47640625 21.95765625 -3.81640625 29.09765625 C-4.14640625 29.09765625 -4.47640625 29.09765625 -4.81640625 29.09765625 C-4.84106506 25.12834636 -4.85924648 21.15906591 -4.87133789 17.18969727 C-4.87637682 15.83845239 -4.88320802 14.48721299 -4.8918457 13.13598633 C-4.90393044 11.19745191 -4.90910453 9.25887825 -4.9140625 7.3203125 C-4.91929932 6.15250244 -4.92453613 4.98469238 -4.92993164 3.78149414 C-4.75201514 -0.42460498 -4.40383554 0.11268771 0 0 Z " fill="#696969" transform="translate(1182.81640625,144.90234375)"/>
<path d="M0 0 C2 3 2 3 3.3125 6.5625 C4.67114829 10.0061623 4.67114829 10.0061623 7.0625 11.5 C11.45664338 12.2479393 15.61292038 11.63037649 20 11 C20 11.99 20 12.98 20 14 C16.26396339 16.49069107 12.33226063 16.55092332 8 16 C4.33907784 14.54944594 1.49397005 13.06078142 -1 10 C-1.51171875 7.73828125 -1.51171875 7.73828125 -1.6875 5.3125 C-1.75324219 4.50425781 -1.81898437 3.69601563 -1.88671875 2.86328125 C-1.92410156 2.24839844 -1.96148438 1.63351563 -2 1 C-1.34 0.67 -0.68 0.34 0 0 Z " fill="#626262" transform="translate(1036,198)"/>
<path d="M0 0 C0.99 0 1.98 0 3 0 C3 9.24 3 18.48 3 28 C2.01 28.33 1.02 28.66 0 29 C0 19.43 0 9.86 0 0 Z " fill="#5B5B5B" transform="translate(1096,185)"/>
<path d="M0 0 C0.99 0 1.98 0 3 0 C3.01981934 0.57967529 3.03963867 1.15935059 3.06005859 1.7565918 C3.15572601 4.40065937 3.26523453 7.0439817 3.375 9.6875 C3.42140625 11.05551758 3.42140625 11.05551758 3.46875 12.45117188 C3.66776954 17.01203631 3.85690122 20.86190275 6 25 C4.68 25.33 3.36 25.66 2 26 C-0.23413013 22.64880481 -0.23847762 21.5822245 -0.1953125 17.67578125 C-0.18886719 16.64775391 -0.18242188 15.61972656 -0.17578125 14.56054688 C-0.15064453 12.95276367 -0.15064453 12.95276367 -0.125 11.3125 C-0.11597656 10.22904297 -0.10695313 9.14558594 -0.09765625 8.02929688 C-0.0740734 5.3526429 -0.04116126 2.67643203 0 0 Z " fill="#5D5D5D" transform="translate(1194,185)"/>
<path d="M0 0 C0.66 0.33 1.32 0.66 2 1 C1.27554687 1.68964844 0.55109375 2.37929687 -0.1953125 3.08984375 C-5.93680934 8.64085028 -10.93481907 14.05317182 -15 21 C-15.99 20.34 -16.98 19.68 -18 19 C-19.32 19.99 -20.64 20.98 -22 22 C-20.37722594 17.91373761 -17.45278941 15.14975673 -14.375 12.125 C-13.84100586 11.59487305 -13.30701172 11.06474609 -12.75683594 10.51855469 C-8.75729884 6.60559807 -4.60669469 3.18925017 0 0 Z " fill="#D0D0D0" transform="translate(372,111)"/>
<path d="M0 0 C0.33 0 0.66 0 1 0 C1.33 5.94 1.66 11.88 2 18 C2.66 17.67 3.32 17.34 4 17 C5.87379605 16.92966231 7.75001102 16.9156978 9.625 16.9375 C11.12933594 16.95103516 11.12933594 16.95103516 12.6640625 16.96484375 C13.43492188 16.97644531 14.20578125 16.98804688 15 17 C15 17.33 15 17.66 15 18 C11.7 18 8.4 18 5 18 C5 21.3 5 24.6 5 28 C3.68 28.33 2.36 28.66 1 29 C0 28 0 28 -0.11352539 25.31616211 C-0.10828857 24.14835205 -0.10305176 22.98054199 -0.09765625 21.77734375 C-0.09443359 20.51728516 -0.09121094 19.25722656 -0.08789062 17.95898438 C-0.07953403 16.61848891 -0.07106907 15.27799412 -0.0625 13.9375 C-0.0574866 12.59310058 -0.05292342 11.2486994 -0.04882812 9.90429688 C-0.03699488 6.60282059 -0.02050971 3.30143197 0 0 Z " fill="#848484" transform="translate(1234,146)"/>
<path d="M0 0 C2.58396679 -0.08112454 5.16537568 -0.14054748 7.75 -0.1875 C8.47960938 -0.21263672 9.20921875 -0.23777344 9.9609375 -0.26367188 C13.23069901 -0.30825953 15.59482885 -0.21328109 18.515625 1.32421875 C20 3 20 3 20 6 C18.86820313 5.855625 17.73640625 5.71125 16.5703125 5.5625 C15.08854988 5.37493511 13.60677859 5.18743866 12.125 5 C11.37863281 4.90460938 10.63226562 4.80921875 9.86328125 4.7109375 C5.94392131 4.18983217 5.94392131 4.18983217 2 4 C1.34 4.66 0.68 5.32 0 6 C0 4.02 0 2.04 0 0 Z " fill="#5E5E5E" transform="translate(1035,145)"/>
<path d="M0 0 C4.19936589 3.74538039 6.2766211 6.73412001 8 12 C7.6875 14.4375 7.6875 14.4375 7 16 C6.01 15.67 5.02 15.34 4 15 C2.8125 11.4375 2.8125 11.4375 2 8 C-0.64 8 -3.28 8 -6 8 C-5.67 7.01 -5.34 6.02 -5 5 C-3.35 5 -1.7 5 0 5 C-0.2784375 4.0409375 -0.2784375 4.0409375 -0.5625 3.0625 C-0.706875 2.381875 -0.85125 1.70125 -1 1 C-0.67 0.67 -0.34 0.34 0 0 Z " fill="#5C5C5C" transform="translate(901,198)"/>
<path d="M0 0 C3.4375 2 3.4375 2 6 4 C5.67 4.99 5.34 5.98 5 7 C3.9790625 6.505 3.9790625 6.505 2.9375 6 C-0.50840238 4.82692685 -3.38397422 4.85819507 -7 5 C-7.66 6.65 -8.32 8.3 -9 10 C-9.66 8.68 -10.32 7.36 -11 6 C-11.66 6 -12.32 6 -13 6 C-12.06896676 3.67241689 -11.34617872 2.25642868 -9.3125 0.75 C-6.00205754 -0.32365701 -3.46551259 -0.3585013 0 0 Z " fill="#6F6F6F" transform="translate(925,184)"/>
<path d="M0 0 C2.125 -0.4375 2.125 -0.4375 5 0 C8.3224494 2.81374901 10.62987282 5.75743019 11.875 9.9375 C11.91625 10.618125 11.9575 11.29875 12 12 C11.01 12 10.02 12 9 12 C8.67 13.98 8.34 15.96 8 18 C7.67 18 7.34 18 7 18 C6.97421875 17.40832031 6.9484375 16.81664062 6.921875 16.20703125 C6.64035381 12.28492922 6.26916011 9.49691097 4.375 6 C1.31082962 3.419646 -1.06069365 3.22726767 -5 3 C-5 2.67 -5 2.34 -5 2 C-3.35 2 -1.7 2 0 2 C0 1.34 0 0.68 0 0 Z " fill="#737373" transform="translate(1017,146)"/>
<path d="M0 0 C3.61055091 0.76242216 6.85834625 2.12473374 10.25 3.5625 C11.32765625 4.01753906 12.4053125 4.47257813 13.515625 4.94140625 C14.33546875 5.29074219 15.1553125 5.64007813 16 6 C14.35 7.32 12.7 8.64 11 10 C7.37 8.35 3.74 6.7 0 5 C0 3.35 0 1.7 0 0 Z " fill="#606261" transform="translate(300,186)"/>
<path d="M0 0 C0.33 0 0.66 0 1 0 C1 7.92 1 15.84 1 24 C0.01 24 -0.98 24 -2 24 C-2.05787784 20.37506666 -2.0935542 16.75025143 -2.125 13.125 C-2.14175781 12.09246094 -2.15851563 11.05992187 -2.17578125 9.99609375 C-2.18222656 9.00996094 -2.18867187 8.02382812 -2.1953125 7.0078125 C-2.20578613 6.09660645 -2.21625977 5.18540039 -2.22705078 4.24658203 C-2 2 -2 2 0 0 Z " fill="#5C5C5C" transform="translate(1073,151)"/>
<path d="M0 0 C2.97817817 4.46726725 2.49327596 8.76081139 2 14 C0.6875 17.625 0.6875 17.625 -1 20 C-1.99 20.33 -2.98 20.66 -4 21 C-4.625 19.1875 -4.625 19.1875 -5 17 C-4.01 15.515 -4.01 15.515 -3 14 C-2.61806674 11.88828061 -2.61806674 11.88828061 -2.5 9.625 C-2.18250137 6.08633345 -1.56428861 3.23286312 0 0 Z " fill="#5F5F5F" transform="translate(1244,191)"/>
<path d="M0 0 C0.33 0 0.66 0 1 0 C1.02578125 0.67546875 1.0515625 1.3509375 1.078125 2.046875 C1.38777326 7.59160775 1.38777326 7.59160775 3.625 12.5625 C6.71399937 14.43215751 9.4316664 14.7255128 13 15 C13 15.33 13 15.66 13 16 C12.195625 16.12375 11.39125 16.2475 10.5625 16.375 C9.716875 16.58125 8.87125 16.7875 8 17 C7.67 17.66 7.34 18.32 7 19 C1.98990293 17.56854369 -0.10619424 15.17048478 -3 11 C-2.67 10.01 -2.34 9.02 -2 8 C-1.34 8 -0.68 8 0 8 C0 5.36 0 2.72 0 0 Z " fill="#717171" transform="translate(915,156)"/>
<path d="M0 0 C5.72156582 -0.45772527 8.49411162 0.45965913 13 4 C14 5 14 5 14.0625 8.5625 C14.041875 9.696875 14.02125 10.83125 14 12 C13.67 11.34 13.34 10.68 13 10 C12.34 10 11.68 10 11 10 C10.566875 9.38125 10.13375 8.7625 9.6875 8.125 C7.68780562 5.60686633 6.01595927 4.97814895 3 4 C3 3.34 3 2.68 3 2 C2.01 1.67 1.02 1.34 0 1 C0 0.67 0 0.34 0 0 Z " fill="#636363" transform="translate(1291,197)"/>
<path d="M0 0 C4.18865681 0.76084588 8.22484795 1.87822698 12.3125 3.0625 C14.19388672 3.60583984 14.19388672 3.60583984 16.11328125 4.16015625 C17.54220703 4.57587891 17.54220703 4.57587891 19 5 C18.01 5.33 17.02 5.66 16 6 C16.33 6.99 16.66 7.98 17 9 C4.0182514 6.45334118 4.0182514 6.45334118 0 1 C0 0.67 0 0.34 0 0 Z " fill="#606161" transform="translate(309,227)"/>
<path d="M0 0 C0.33 0 0.66 0 1 0 C1 3.96 1 7.92 1 12 C1.66 12 2.32 12 3 12 C3 17.61 3 23.22 3 29 C2.01 28.67 1.02 28.34 0 28 C0 18.76 0 9.52 0 0 Z " fill="#6B6B6B" transform="translate(1131,146)"/>
<path d="M0 0 C2.72957339 2.35735884 3.88893396 4.58133526 5 8 C5 8.99 5 9.98 5 11 C2.03 11 -0.94 11 -4 11 C-3.39301257 6.87248551 -1.96189209 3.6678852 0 0 Z " fill="#E7E7E7" transform="translate(1018,192)"/>
<path d="M0 0 C5 6.36363636 5 6.36363636 5 11 C2.03 11 -0.94 11 -4 11 C-3.48964169 6.6109185 -2.47785723 3.66291938 0 0 Z " fill="#E7E7E7" transform="translate(957,192)"/>
<path d="M0 0 C2.96052484 3.36423277 3.92289822 6.69159287 5 11 C2.03 11 -0.94 11 -4 11 C-3.48964169 6.6109185 -2.47785723 3.66291938 0 0 Z " fill="#E7E7E7" transform="translate(896,192)"/>
<path d="M0 0 C2.27734375 1.01953125 2.27734375 1.01953125 4 2 C4 2.99 4 3.98 4 5 C-0.62 5 -5.24 5 -10 5 C-10.33 4.34 -10.66 3.68 -11 3 C-11.99 3 -12.98 3 -14 3 C-9.58341023 -0.4192953 -5.38890687 -0.74230023 0 0 Z " fill="#606060" transform="translate(903,145)"/>
<path d="M0 0 C2.31 0 4.62 0 7 0 C7.66 1.65 8.32 3.3 9 5 C7 7 7 7 5.0546875 7.1953125 C3.03645833 7.13020833 1.01822917 7.06510417 -1 7 C-0.67 4.69 -0.34 2.38 0 0 Z " fill="#D4D6D5" transform="translate(344,192)"/>
<path d="M0 0 C2.5625 1.5 2.5625 1.5 4 3 C3.67 3.99 3.34 4.98 3 6 C2.15695312 5.75443359 2.15695312 5.75443359 1.296875 5.50390625 C-1.13059056 4.97135003 -3.26889681 4.90101319 -5.75 4.9375 C-6.94882813 4.95103516 -6.94882813 4.95103516 -8.171875 4.96484375 C-9.07679687 4.98224609 -9.07679687 4.98224609 -10 5 C-10.33 3.68 -10.66 2.36 -11 1 C-7.56928684 -0.71535658 -3.75941181 -0.4006478 0 0 Z " fill="#666666" transform="translate(1124,184)"/>
<path d="M0 0 C2.87344894 2.00270684 3.79039415 4.22375892 5.0625 7.4375 C4.7325 8.0975 4.4025 8.7575 4.0625 9.4375 C3.0725 9.7675 2.0825 10.0975 1.0625 10.4375 C1.0625 12.0875 1.0625 13.7375 1.0625 15.4375 C0.7325 15.4375 0.4025 15.4375 0.0625 15.4375 C0.02511719 14.83421875 -0.01226563 14.2309375 -0.05078125 13.609375 C-0.43074802 8.9901711 -0.68929373 5.96815899 -3.9375 2.4375 C-3.9375 1.7775 -3.9375 1.1175 -3.9375 0.4375 C-1.9375 -0.5625 -1.9375 -0.5625 0 0 Z " fill="#6D6D6D" transform="translate(1223.9375,148.5625)"/>
<path d="M0 0 C0.66 0.33 1.32 0.66 2 1 C1.34 4.96 0.68 8.92 0 13 C-0.99 13.33 -1.98 13.66 -3 14 C-4.49498913 11.01002175 -4.11577446 8.29957225 -4 5 C-3 2 -3 2 0 0 Z " fill="#5E5E5E" transform="translate(915,151)"/>
<path d="M0 0 C2.97722547 0.70333538 5.85256543 1.58248537 8.75 2.5625 C9.94882813 2.96662109 9.94882813 2.96662109 11.171875 3.37890625 C11.77515625 3.58386719 12.3784375 3.78882813 13 4 C13 4.99 13 5.98 13 7 C8.0600659 7.29058436 4.90174327 7.21320034 1 4 C0.1875 1.8125 0.1875 1.8125 0 0 Z " fill="#626262" transform="translate(1142,207)"/>
<path d="M0 0 C0.33 0 0.66 0 1 0 C0.63265306 6.36734694 0.63265306 6.36734694 -2.4375 9.4375 C-5 11 -5 11 -7 11 C-7 10.01 -7 9.02 -7 8 C-8.65 8 -10.3 8 -12 8 C-12 7.67 -12 7.34 -12 7 C-8.97265625 6.36523438 -8.97265625 6.36523438 -5.9453125 5.73046875 C-3.62953451 5.07691162 -3.62953451 5.07691162 -2 2 C-1.34 1.34 -0.68 0.68 0 0 Z " fill="#747474" transform="translate(1162,203)"/>
<path d="M0 0 C4.95 1.98 4.95 1.98 10 4 C9.67 5.32 9.34 6.64 9 8 C5.44219804 7.39009109 2.3171411 6.4216319 -1 5 C-0.67 3.35 -0.34 1.7 0 0 Z " fill="#626463" transform="translate(306,152)"/>
<path d="M0 0 C0.66 0.33 1.32 0.66 2 1 C2 5.1274515 1.54466387 8.915021 1 13 C-0.32 12.34 -1.64 11.68 -3 11 C-3.33 11.99 -3.66 12.98 -4 14 C-4.49940808 7.88225104 -3.24900602 4.97504047 0 0 Z " fill="#757575" transform="translate(1037,188)"/>
<path d="M0 0 C3.3 0 6.6 0 10 0 C10 1.32 10 2.64 10 4 C6.04 4 2.08 4 -2 4 C-1.34 2.68 -0.68 1.36 0 0 Z " fill="#696969" transform="translate(1184,158)"/>
<path d="M0 0 C4 2 4 2 5.25 4.625 C5.4975 5.40875 5.745 6.1925 6 7 C5.01 7.33 4.02 7.66 3 8 C2.67 9.65 2.34 11.3 2 13 C1.34 13 0.68 13 0 13 C0 8.71 0 4.42 0 0 Z " fill="#5C5C5C" transform="translate(1132,145)"/>
<path d="M0 0 C7.26153846 -0.49230769 7.26153846 -0.49230769 11 2 C11.66 2.66 12.32 3.32 13 4 C12.67 4.99 12.34 5.98 12 7 C10.948125 6.5359375 10.948125 6.5359375 9.875 6.0625 C6.91063343 4.96697322 4.12301892 4.43577008 1 4 C1.99 3.67 2.98 3.34 4 3 C4 2.34 4 1.68 4 1 C2.68 0.67 1.36 0.34 0 0 Z " fill="#717171" transform="translate(1149,184)"/>
<path d="M0 0 C-1 3 -1 3 -2.5625 4.1875 C-6.11122383 5.37040794 -9.26701621 5.12443279 -13 5 C-12.67 4.01 -12.34 3.02 -12 2 C-9.78515625 1.015625 -9.78515625 1.015625 -7.0625 0.25 C-6.16660156 -0.01296875 -5.27070312 -0.2759375 -4.34765625 -0.546875 C-2 -1 -2 -1 0 0 Z " fill="#5A5A5A" transform="translate(935,170)"/>
<path d="M0 0 C0.33 0 0.66 0 1 0 C2 3 3 6 4 9 C1.66666667 13.66666667 1.66666667 13.66666667 -1 15 C-1.33 14.34 -1.66 13.68 -2 13 C-2.66 12.67 -3.32 12.34 -4 12 C-3.525625 11.505 -3.05125 11.01 -2.5625 10.5 C-0.37832093 7.00531349 -0.34086089 4.09033064 0 0 Z " fill="#6D6D6D" transform="translate(935,157)"/>
<path d="M0 0 C1.79244141 0.01740234 1.79244141 0.01740234 3.62109375 0.03515625 C5.41740234 0.04869141 5.41740234 0.04869141 7.25 0.0625 C8.17683594 0.07410156 9.10367187 0.08570313 10.05859375 0.09765625 C9.72859375 1.08765625 9.39859375 2.07765625 9.05859375 3.09765625 C7.26725397 3.15157618 5.47545476 3.19041196 3.68359375 3.22265625 C2.68585938 3.24585938 1.688125 3.2690625 0.66015625 3.29296875 C-1.94140625 3.09765625 -1.94140625 3.09765625 -3.94140625 1.09765625 C-2.94140625 0.09765625 -2.94140625 0.09765625 0 0 Z " fill="#5B5B5B" transform="translate(1270.94140625,210.90234375)"/>
<path d="M0 0 C0.66 0 1.32 0 2 0 C5.07692308 6.4 5.07692308 6.4 4.6875 9.4375 C4.460625 9.953125 4.23375 10.46875 4 11 C1 10 1 10 -0.25 7.75 C-1.07700926 4.71763271 -0.85394079 2.98879276 0 0 Z " fill="#6A6A6A" transform="translate(904,203)"/>
<path d="M0 0 C4.62 0 9.24 0 14 0 C14 0.99 14 1.98 14 3 C11.64561267 4.42944945 10.51967567 5.08661261 7.75 4.625 C7.1725 4.41875 6.595 4.2125 6 4 C6 3.67 6 3.34 6 3 C3.03 2.505 3.03 2.505 0 2 C0 1.34 0 0.68 0 0 Z " fill="#6E6E6E" transform="translate(893,170)"/>
<path d="M0 0 C0.33 0.66 0.66 1.32 1 2 C1.66 2 2.32 2 3 2 C2.8125 4.375 2.8125 4.375 2 7 C-0.5625 8.3125 -0.5625 8.3125 -3 9 C-3.33 8.01 -3.66 7.02 -4 6 C-5.65 6 -7.3 6 -9 6 C-9 5.67 -9 5.34 -9 5 C-4.545 4.505 -4.545 4.505 0 4 C0 2.68 0 1.36 0 0 Z " fill="#6F6F6F" transform="translate(1301,205)"/>
<path d="M0 0 C4.26086957 6.39130435 4.26086957 6.39130435 3.625 10.3125 C3.41875 10.869375 3.2125 11.42625 3 12 C2.34 12 1.68 12 1 12 C0.01 9.03 -0.98 6.06 -2 3 C-1.34 3 -0.68 3 0 3 C0 2.01 0 1.02 0 0 Z " fill="#686868" transform="translate(1027,202)"/>
<path d="M0 0 C2.24956302 2.24956302 3.00510965 4.06323263 4.1875 7 C4.55230469 7.886875 4.91710937 8.77375 5.29296875 9.6875 C6 12 6 12 5 14 C2.00675737 12.9024777 1.15389099 12.32317108 -0.25 9.375 C-0.4975 8.59125 -0.745 7.8075 -1 7 C-0.34 7 0.32 7 1 7 C0.67 4.69 0.34 2.38 0 0 Z " fill="#6D6D6D" transform="translate(898,186)"/>
<path d="M0 0 C3.7109611 0.31991044 4.99743948 0.7900419 7.625 3.3125 C7.295 4.3025 6.965 5.2925 6.625 6.3125 C5.944375 6.02375 5.26375 5.735 4.5625 5.4375 C1.29606907 4.18652645 -2.00346123 3.23802045 -5.375 2.3125 C-3.375 0.3125 -3.375 0.3125 0 0 Z " fill="#646464" transform="translate(1297.375,184.6875)"/>
<path d="M0 0 C2.9375 0.75 2.9375 0.75 6 2 C6.33 3.32 6.66 4.64 7 6 C1.06 5.01 1.06 5.01 -5 4 C-2 2 -2 2 0 2 C0 1.34 0 0.68 0 0 Z " fill="#6F6F6F" transform="translate(988,145)"/>
<path d="M0 0 C0.33 0 0.66 0 1 0 C1 3.63 1 7.26 1 11 C-0.32 11 -1.64 11 -3 11 C-2.67 8.03 -2.34 5.06 -2 2 C-1.34 2 -0.68 2 0 2 C0 1.34 0 0.68 0 0 Z " fill="#707070" transform="translate(989,202)"/>
<path d="M0 0 C0 0.66 0 1.32 0 2 C-2.31 2.66 -4.62 3.32 -7 4 C-7 5.65 -7 7.3 -7 9 C-7.99 9 -8.98 9 -10 9 C-10.35882213 5.77060081 -10.27258004 4.38790237 -8.375 1.6875 C-5.39542581 -0.42956587 -3.57763189 -0.32523926 0 0 Z " fill="#5C5C5C" transform="translate(1153,185)"/>
<path d="M0 0 C4.455 0.99 4.455 0.99 9 2 C8.01 2.33 7.02 2.66 6 3 C6.33 3.99 6.66 4.98 7 6 C1.46153846 6.36923077 1.46153846 6.36923077 -0.875 4.5 C-1.24625 4.005 -1.6175 3.51 -2 3 C-1.34 2.01 -0.68 1.02 0 0 Z " fill="#717171" transform="translate(1208,169)"/>
<path d="M0 0 C2.64 0 5.28 0 8 0 C8 1.33333333 8 2.66666667 8 4 C5.36 4 2.72 4 0 4 C0 2.68 0 1.36 0 0 Z " fill="#5D5D5D" transform="translate(1062,145)"/>
<path d="M0 0 C0.66 0 1.32 0 2 0 C1.91266424 1.60517097 1.80447776 3.20921662 1.6875 4.8125 C1.62949219 5.70582031 1.57148437 6.59914062 1.51171875 7.51953125 C1 10 1 10 -2 13 C-2 9.37 -2 5.74 -2 2 C-1.34 2 -0.68 2 0 2 C0 1.34 0 0.68 0 0 Z " fill="#5A5A5A" transform="translate(1265,199)"/>
<path d="M0 0 C2.97 0 5.94 0 9 0 C8 2 8 2 5.25 3.125 C2.29813104 3.91973395 0.02780163 4.17810598 -3 4 C-2.34 3.67 -1.68 3.34 -1 3 C-0.67 2.01 -0.34 1.02 0 0 Z " fill="#5D5D5D" transform="translate(1010,145)"/>
<path d="M0 0 C0.99 0 1.98 0 3 0 C3.33 2.64 3.66 5.28 4 8 C3.34 8 2.68 8 2 8 C1.34 7.34 0.68 6.68 0 6 C-0.66 6 -1.32 6 -2 6 C-1.125 1.125 -1.125 1.125 0 0 Z " fill="#5E5E5E" transform="translate(895,185)"/>
<path d="M0 0 C2.3125 -0.25 2.3125 -0.25 5 0 C6.8125 2 6.8125 2 8 4 C4.61725734 5.12758089 3.23221777 4.81750262 -0.1875 4.0625 C-1.08855469 3.86785156 -1.98960937 3.67320312 -2.91796875 3.47265625 C-3.60503906 3.31667969 -4.29210937 3.16070312 -5 3 C-5 2.67 -5 2.34 -5 2 C-3.35 2 -1.7 2 0 2 C0 1.34 0 0.68 0 0 Z " fill="#6C6C6C" transform="translate(1017,146)"/>
<path d="M0 0 C1.32 0.99 2.64 1.98 4 3 C3.01 4.98 2.02 6.96 1 9 C0.01 8.67 -0.98 8.34 -2 8 C-1.47731534 5.23723823 -0.89130413 2.6739124 0 0 Z " fill="#717171" transform="translate(1008,205)"/>
<path d="M0 0 C0 0.33 0 0.66 0 1 C-1.65 1.33 -3.3 1.66 -5 2 C-3.68 2.66 -2.36 3.32 -1 4 C-7.625 5 -7.625 5 -11 5 C-11 4.01 -11 3.02 -11 2 C-7.36576791 -0.32590854 -4.22911669 -0.16265833 0 0 Z " fill="#717171" transform="translate(1299,184)"/>
<path d="M0 0 C3.3 0.66 6.6 1.32 10 2 C8.35 3.32 6.7 4.64 5 6 C3.02 5.01 1.04 4.02 -1 3 C-0.67 2.01 -0.34 1.02 0 0 Z " fill="#6E6E6E" transform="translate(1104,169)"/>
<path d="M0 0 C1.46067199 0.45082469 2.91848032 0.91093537 4.375 1.375 C5.18710937 1.63023438 5.99921875 1.88546875 6.8359375 2.1484375 C9 3 9 3 11 5 C6.05 4.67 1.1 4.34 -4 4 C-2.68 3.01 -1.36 2.02 0 1 C0 0.67 0 0.34 0 0 Z " fill="#CCCCCC" transform="translate(404,102)"/>
<path d="M0 0 C2.96175123 0.61277612 4.38058783 1.25372522 7 3 C5.75 4.5625 5.75 4.5625 4 6 C1.8125 5.6875 1.8125 5.6875 0 5 C0 3.35 0 1.7 0 0 Z " fill="#6C6E6D" transform="translate(300,186)"/>
<path d="M0 0 C2.22825644 2.22825644 2.69239369 3.65761628 3.625 6.625 C3.88539063 7.44226563 4.14578125 8.25953125 4.4140625 9.1015625 C4.60742188 9.72804687 4.80078125 10.35453125 5 11 C4.34 11 3.68 11 3 11 C3 10.01 3 9.02 3 8 C1.68 8 0.36 8 -1 8 C-2.2077558 4.37673261 -1.54311128 3.35853631 0 0 Z " fill="#6C6C6C" transform="translate(959,186)"/>
<path d="M0 0 C0.66 0 1.32 0 2 0 C4.28062828 3.42094242 4.21925007 4.68187222 4.125 8.6875 C4.10695313 9.68136719 4.08890625 10.67523438 4.0703125 11.69921875 C4.03550781 12.83810547 4.03550781 12.83810547 4 14 C3.67 14 3.34 14 3 14 C2.67 11.36 2.34 8.72 2 6 C1.01 6.495 1.01 6.495 0 7 C0 4.69 0 2.38 0 0 Z " fill="#747474" transform="translate(986,185)"/>
<path d="M0 0 C0.33 0 0.66 0 1 0 C1 3.3 1 6.6 1 10 C0.01 10 -0.98 10 -2 10 C-2.1953125 3.9453125 -2.1953125 3.9453125 -2 2 C-1.34 1.34 -0.68 0.68 0 0 Z " fill="#5F5F5F" transform="translate(1037,165)"/>
<path d="M0 0 C2 0 2 0 4.125 1.625 C6.47736015 4.60465619 6.33663062 6.29706315 6 10 C5.01 10.495 5.01 10.495 4 11 C4 9.68 4 8.36 4 7 C3.34 7 2.68 7 2 7 C1.34 4.69 0.68 2.38 0 0 Z " fill="#636363" transform="translate(1049,159)"/>
<path d="M0 0 C0.66 0.33 1.32 0.66 2 1 C1.67 3.31 1.34 5.62 1 8 C-0.32 8.33 -1.64 8.66 -3 9 C-2.67 6.69 -2.34 4.38 -2 2 C-1.34 2 -0.68 2 0 2 C0 1.34 0 0.68 0 0 Z " fill="#5A5A5A" transform="translate(1227,157)"/>
<path d="M0 0 C0.99 0.99 1.98 1.98 3 3 C2.34 4.98 1.68 6.96 1 9 C0.01 8.67 -0.98 8.34 -2 8 C-1.47731534 5.23723823 -0.89130413 2.6739124 0 0 Z " fill="#707070" transform="translate(947,205)"/>
<path d="M0 0 C2 2 2 2 2.1953125 3.9453125 C2.13020833 5.96354167 2.06510417 7.98177083 2 10 C1.01 9.67 0.02 9.34 -1 9 C-1.09765625 2.84765625 -1.09765625 2.84765625 -1 1 C-0.67 0.67 -0.34 0.34 0 0 Z " fill="#5D5D5D" transform="translate(1073,204)"/>
<path d="M0 0 C1.9375 0.75 1.9375 0.75 4 2 C4.75 4.125 4.75 4.125 5 6 C3.68 6 2.36 6 1 6 C0.34 5.34 -0.32 4.68 -1 4 C-0.625 1.875 -0.625 1.875 0 0 Z " fill="#606060" transform="translate(1203,165)"/>
<path d="M0 0 C0 0.66 0 1.32 0 2 C-4.43076923 4.09230769 -4.43076923 4.09230769 -7.3125 3.625 C-7.869375 3.41875 -8.42625 3.2125 -9 3 C-9 2.34 -9 1.68 -9 1 C-6.04335481 -0.4783226 -3.25770263 -0.06032783 0 0 Z " fill="#5F5F5F" transform="translate(988,145)"/>
<path d="M0 0 C1.32 0.99 2.64 1.98 4 3 C3.34 4.65 2.68 6.3 2 8 C1.01 8 0.02 8 -1 8 C-0.67 5.36 -0.34 2.72 0 0 Z " fill="#676767" transform="translate(451,249)"/>
<path d="M0 0 C-0.99 0.33 -1.98 0.66 -3 1 C-2.67 1.99 -2.34 2.98 -2 4 C-6.455 3.01 -6.455 3.01 -11 2 C-7.374967 -1.625033 -4.81746234 -1.01907857 0 0 Z " fill="#686A69" transform="translate(328,232)"/>
<path d="M0 0 C0.33 2.64 0.66 5.28 1 8 C0.01 8.33 -0.98 8.66 -2 9 C-3.35439668 6.29120665 -3.06501451 3.99066732 -3 1 C-1 0 -1 0 0 0 Z " fill="#5E5E5E" transform="translate(915,189)"/>
<path d="M0 0 C2.92824652 0.97608217 4.61426621 2.10786631 7 4 C4.36 4.33 1.72 4.66 -1 5 C-1.33 4.34 -1.66 3.68 -2 3 C-2.99 3 -3.98 3 -5 3 C-2.6875 1.4375 -2.6875 1.4375 0 0 Z " fill="#747474" transform="translate(894,145)"/>
<path d="M0 0 C2.86724686 0.57344937 3.8614515 0.8614515 6 3 C5.67 3.99 5.34 4.98 5 6 C2.525 5.01 2.525 5.01 0 4 C0 2.68 0 1.36 0 0 Z " fill="#6D6D6D" transform="translate(911,207)"/>
<path d="M0 0 C0.66 1.32 1.32 2.64 2 4 C1.01 4.495 1.01 4.495 0 5 C0 6.65 0 8.3 0 10 C-1.32 9.67 -2.64 9.34 -4 9 C-2.94124926 5.59687262 -1.99097846 2.98646769 0 0 Z " fill="#676867" transform="translate(325,140)"/>
<path d="M0 0 C0.99 0.33 1.98 0.66 3 1 C3 2.98 3 4.96 3 7 C1.0625 6.6875 1.0625 6.6875 -1 6 C-1.33 5.01 -1.66 4.02 -2 3 C-1.34 3 -0.68 3 0 3 C0 2.01 0 1.02 0 0 Z " fill="#CED0CF" transform="translate(312,185)"/>
<path d="M0 0 C1.22589844 0.01353516 1.22589844 0.01353516 2.4765625 0.02734375 C3.41628906 0.04474609 3.41628906 0.04474609 4.375 0.0625 C4.375 0.3925 4.375 0.7225 4.375 1.0625 C2.065 1.3925 -0.245 1.7225 -2.625 2.0625 C-1.305 2.7225 0.015 3.3825 1.375 4.0625 C-0.935 4.3925 -3.245 4.7225 -5.625 5.0625 C-5.955 3.7425 -6.285 2.4225 -6.625 1.0625 C-4.21954362 -0.14022819 -2.67503047 -0.03821472 0 0 Z " fill="#828282" transform="translate(1119.625,183.9375)"/>
<path d="M0 0 C0.33 0 0.66 0 1 0 C1.66 2.97 2.32 5.94 3 9 C1.68 9.33 0.36 9.66 -1 10 C-1 6.49064814 -0.62457273 3.43515002 0 0 Z " fill="#757575" transform="translate(1255,165)"/>
<path d="M0 0 C0.33 0.66 0.66 1.32 1 2 C3.31 2 5.62 2 8 2 C8 2.99 8 3.98 8 5 C5.125 5.125 5.125 5.125 2 5 C1.34 4.34 0.68 3.68 0 3 C0 2.01 0 1.02 0 0 Z " fill="#5D5D5D" transform="translate(892,170)"/>
<path d="M0 0 C0.99 1.32 1.98 2.64 3 4 C1.68 5.32 0.36 6.64 -1 8 C-1.66 6.68 -2.32 5.36 -3 4 C-2.01 2.68 -1.02 1.36 0 0 Z " fill="#6F6F6F" transform="translate(1149,155)"/>
<path d="M0 0 C2 2 2 2 2.125 4.625 C2.08375 5.40875 2.0425 6.1925 2 7 C1.67 6.01 1.34 5.02 1 4 C0.34 4 -0.32 4 -1 4 C-1.33 4.99 -1.66 5.98 -2 7 C-2.33 7 -2.66 7 -3 7 C-3.33 5.02 -3.66 3.04 -4 1 C-2.68 1.33 -1.36 1.66 0 2 C0 1.34 0 0.68 0 0 Z " fill="#7B7B7B" transform="translate(1055,149)"/>
<path d="M0 0 C1.093125 0.226875 2.18625 0.45375 3.3125 0.6875 C2.69375 0.97625 2.075 1.265 1.4375 1.5625 C-0.82075765 2.62470042 -0.82075765 2.62470042 -2.6875 4.6875 C-4.0075 4.0275 -5.3275 3.3675 -6.6875 2.6875 C-4.58035839 -0.41123767 -3.86755884 -0.32775922 0 0 Z " fill="#767676" transform="translate(1203.6875,209.3125)"/>
<path d="M0 0 C2 3 2 3 2 6 C0.68 6.33 -0.64 6.66 -2 7 C-2 5.02 -2 3.04 -2 1 C-1.34 0.67 -0.68 0.34 0 0 Z " fill="#5C5C5C" transform="translate(1036,198)"/>
<path d="M0 0 C0.33 0 0.66 0 1 0 C1.33 3.3 1.66 6.6 2 10 C0 9 0 9 -1.25 6.6875 C-2 4 -2 4 -1.125 1.6875 C-0.75375 1.130625 -0.3825 0.57375 0 0 Z " fill="#595959" transform="translate(1107,196)"/>
<path d="M0 0 C3.16115776 1.36983503 3.9927092 1.9890638 6 5 C4.02 5.33 2.04 5.66 0 6 C0 4.02 0 2.04 0 0 Z " fill="#616161" transform="translate(946,145)"/>
<path d="M0 0 C2.86724686 0.57344937 3.8614515 0.8614515 6 3 C4.35 3.66 2.7 4.32 1 5 C0.67 3.35 0.34 1.7 0 0 Z " fill="#707070" transform="translate(1285,207)"/>
<path d="M0 0 C0 1.32 0 2.64 0 4 C-2.31 4 -4.62 4 -7 4 C-4.83989616 0.75984424 -3.8842653 0 0 0 Z " fill="#5C5C5C" transform="translate(1116,171)"/>
<path d="M0 0 C1.32 0.33 2.64 0.66 4 1 C4 1.66 4 2.32 4 3 C3.01 3.495 3.01 3.495 2 4 C2.33 4.66 2.66 5.32 3 6 C1.35 6 -0.3 6 -2 6 C-1.34 4.02 -0.68 2.04 0 0 Z " fill="#727372" transform="translate(340,223)"/>
<path d="M0 0 C0.99 0.33 1.98 0.66 3 1 C2.67 2.32 2.34 3.64 2 5 C1.01 5 0.02 5 -1 5 C-1.66 4.34 -2.32 3.68 -3 3 C-2.01 2.01 -1.02 1.02 0 0 Z " fill="#666666" transform="translate(1211,206)"/>
<path d="M0 0 C0.66 0 1.32 0 2 0 C1.6875 2.375 1.6875 2.375 1 5 C0.01 5.66 -0.98 6.32 -2 7 C-2 3 -2 3 0 0 Z " fill="#616161" transform="translate(1040,186)"/>
<path d="M0 0 C0.66 0.33 1.32 0.66 2 1 C1.67 1.99 1.34 2.98 1 4 C-1.5625 5.1875 -1.5625 5.1875 -4 6 C-3.67 4.35 -3.34 2.7 -3 1 C-2.01 0.67 -1.02 0.34 0 0 Z " fill="#626262" transform="translate(933,169)"/>
<path d="M0 0 C0.66 0.66 1.32 1.32 2 2 C1.34 2 0.68 2 0 2 C-0.66 3.65 -1.32 5.3 -2 7 C-2.99 7 -3.98 7 -5 7 C-3.70700306 4.11562221 -2.34058637 2.12780579 0 0 Z " fill="#5D5D5D" transform="translate(1209,146)"/>
<path d="M0 0 C0.66 0.33 1.32 0.66 2 1 C-0.31 3.31 -2.62 5.62 -5 8 C-5.99 7.34 -6.98 6.68 -8 6 C-5.36 4.02 -2.72 2.04 0 0 Z " fill="#BEBEBE" transform="translate(372,111)"/>
<path d="M0 0 C2.97 0 5.94 0 9 0 C6.08235 1.9451 4.37462715 2.45276317 1 3 C0.67 2.01 0.34 1.02 0 0 Z " fill="#CECECE" transform="translate(389,231)"/>
<path d="M0 0 C1.32 0 2.64 0 4 0 C3.67 1.32 3.34 2.64 3 4 C1.68 4 0.36 4 -1 4 C-0.67 2.68 -0.34 1.36 0 0 Z " fill="#6E6E6E" transform="translate(1124,209)"/>
<path d="M0 0 C1.32 0 2.64 0 4 0 C4 0.66 4 1.32 4 2 C3.34 2 2.68 2 2 2 C1.67 2.99 1.34 3.98 1 5 C0.01 5 -0.98 5 -2 5 C-1.34 3.35 -0.68 1.7 0 0 Z " fill="#707070" transform="translate(1017,185)"/>
<path d="M0 0 C2.64 0 5.28 0 8 0 C8 0.66 8 1.32 8 2 C5.36 2.33 2.72 2.66 0 3 C0 2.01 0 1.02 0 0 Z " fill="#5A5A5A" transform="translate(916,185)"/>
<path d="M0 0 C7.75 -0.125 7.75 -0.125 10 1 C10 1.66 10 2.32 10 3 C8.68 3.33 7.36 3.66 6 4 C5.67 3.34 5.34 2.68 5 2 C2.47266765 1.34444881 2.47266765 1.34444881 0 1 C0 0.67 0 0.34 0 0 Z " fill="#767676" transform="translate(1012,171)"/>
<path d="M0 0 C4 0 4 0 6 1 C5.67 2.32 5.34 3.64 5 5 C3.0625 4.1875 3.0625 4.1875 1 3 C0.67 2.01 0.34 1.02 0 0 Z " fill="#696969" transform="translate(1141,162)"/>
<path d="M0 0 C0.66 0.33 1.32 0.66 2 1 C2.625 4.0625 2.625 4.0625 3 7 C2.01 7 1.02 7 0 7 C-1.125 2.25 -1.125 2.25 0 0 Z " fill="#595959" transform="translate(885,156)"/>
<path d="M0 0 C1.32 0.66 2.64 1.32 4 2 C3.67 2.99 3.34 3.98 3 5 C1.35 4.67 -0.3 4.34 -2 4 C-1.34 2.68 -0.68 1.36 0 0 Z " fill="#686A69" transform="translate(312,155)"/>
<path d="M0 0 C0.33 0.99 0.66 1.98 1 3 C-1.475 4.485 -1.475 4.485 -4 6 C-4.66 5.34 -5.32 4.68 -6 4 C-4.02 2.68 -2.04 1.36 0 0 Z " fill="#5C5C5C" transform="translate(892,147)"/>
<path d="M0 0 C0.66 0 1.32 0 2 0 C2 1.98 2 3.96 2 6 C1.01 6 0.02 6 -1 6 C-1.042721 4.33388095 -1.04063832 2.66617115 -1 1 C-0.67 0.67 -0.34 0.34 0 0 Z " fill="#5B5B5B" transform="translate(1003,190)"/>
<path d="M0 0 C0.99 0.66 1.98 1.32 3 2 C2.67 3.98 2.34 5.96 2 8 C1.34 6.68 0.68 5.36 0 4 C-0.66 4 -1.32 4 -2 4 C-1.34 2.68 -0.68 1.36 0 0 Z " fill="#7D7D7D" transform="translate(914,186)"/>
<path d="M0 0 C-0.66 1.32 -1.32 2.64 -2 4 C-3.32 3.67 -4.64 3.34 -6 3 C-6 2.34 -6 1.68 -6 1 C-3 0 -3 0 0 0 Z " fill="#5A5A5A" transform="translate(1220,171)"/>
<path d="M0 0 C1.65 1.65 3.3 3.3 5 5 C3.02 5.99 3.02 5.99 1 7 C0.34 6.34 -0.32 5.68 -1 5 C-0.625 2.375 -0.625 2.375 0 0 Z " fill="#727272" transform="translate(954,153)"/>
<path d="M0 0 C0.33 0 0.66 0 1 0 C1 1.98 1 3.96 1 6 C0.01 6 -0.98 6 -2 6 C-2.66 4.35 -3.32 2.7 -4 1 C-2.68 1.33 -1.36 1.66 0 2 C0 1.34 0 0.68 0 0 Z " fill="#636363" transform="translate(1255,149)"/>
</svg>
